<svg width="34" height="34" viewBox="0 0 34 34" fill="none" xmlns="http://www.w3.org/2000/svg">
<g clip-path="url(#clip0_1_1231)">
<path d="M33.98 16.91C33.98 7.79731 26.5927 0.410004 17.48 0.410004C8.36728 0.410004 0.97998 7.79731 0.97998 16.91C0.97998 26.0227 8.36728 33.41 17.48 33.41C26.5927 33.41 33.98 26.0227 33.98 16.91Z" fill="#2004FC"/>
<path d="M15.5354 16.2307C15.5354 16.2307 17.4439 16.0884 17.4439 13.8396C17.4439 11.5909 15.8826 10.4933 13.9048 10.4933H7.39664V23.0602H13.9048C13.9048 23.0602 17.8778 23.1863 17.8778 19.3511C17.8778 19.3511 18.051 16.2307 15.5354 16.2307ZM13.4364 12.727H13.9048C13.9048 12.727 14.7895 12.727 14.7895 14.0345C14.7895 15.3419 14.2692 15.5314 13.679 15.5314H10.2642V12.727H13.4364ZM13.7209 20.8266H10.2642V17.4683H13.9048C13.9048 17.4683 15.2233 17.4509 15.2233 19.1941C15.2233 20.6641 14.2385 20.8155 13.7209 20.8266ZM23.1764 13.6908C18.3667 13.6908 18.371 18.5193 18.371 18.5193C18.371 18.5193 18.041 23.3231 23.1764 23.3231C23.1764 23.3231 27.456 23.5688 27.456 19.9814H25.255C25.255 19.9814 25.3285 21.3324 23.2498 21.3324C23.2498 21.3324 21.0486 21.4806 21.0486 19.1459H27.5294C27.5294 19.1459 28.2384 13.6908 23.1764 13.6908ZM21.0244 17.4683C21.0244 17.4683 21.2931 15.5313 23.2254 15.5313C25.1571 15.5313 25.1329 17.4683 25.1329 17.4683H21.0244ZM25.6456 12.7812H20.4855V11.2337H25.6456V12.7812Z" fill="white"/>
</g>
<defs>
<clipPath id="clip0_1_1231">
<rect width="33" height="33" fill="white" transform="translate(0.97998 0.410004)"/>
</clipPath>
</defs>
</svg>
