<svg width="32" height="32" viewBox="0 0 32 32" fill="none" xmlns="http://www.w3.org/2000/svg">
<g clip-path="url(#clip0_3148_3467)">
<path d="M22.4524 9.5578C22.4524 9.89954 22.3167 10.2273 22.075 10.4689C21.8334 10.7106 21.5056 10.8463 21.1639 10.8463H10.8557C10.5139 10.8463 10.1862 10.7106 9.94452 10.4689C9.70288 10.2273 9.56712 9.89954 9.56712 9.5578C9.56712 9.21606 9.70288 8.88832 9.94452 8.64667C10.1862 8.40503 10.5139 8.26927 10.8557 8.26927H21.1639C21.5056 8.26927 21.8334 8.40503 22.075 8.64667C22.3167 8.88832 22.4524 9.21606 22.4524 9.5578ZM30.1836 6.98074V25.0202C30.1816 26.7282 29.5021 28.3658 28.2943 29.5736C27.0866 30.7813 25.449 31.4608 23.741 31.4628H8.27859C6.57052 31.4608 4.933 30.7813 3.72521 29.5736C2.51742 28.3658 1.83798 26.7282 1.83594 25.0202V6.98074C1.83798 5.27267 2.51742 3.63514 3.72521 2.42736C4.933 1.21957 6.57052 0.540132 8.27859 0.538086L23.741 0.538086C25.449 0.540132 27.0866 1.21957 28.2943 2.42736C29.5021 3.63514 30.1816 5.27267 30.1836 6.98074V6.98074ZM9.56712 23.7316C9.56712 23.4768 9.49155 23.2277 9.34997 23.0158C9.20838 22.8039 9.00714 22.6387 8.77169 22.5412C8.53624 22.4437 8.27716 22.4181 8.02721 22.4679C7.77726 22.5176 7.54767 22.6403 7.36746 22.8205C7.18726 23.0007 7.06454 23.2303 7.01482 23.4803C6.9651 23.7302 6.99062 23.9893 7.08814 24.2247C7.18567 24.4602 7.35082 24.6614 7.56272 24.803C7.77462 24.9446 8.02374 25.0202 8.27859 25.0202C8.62033 25.0202 8.94807 24.8844 9.18972 24.6428C9.43137 24.4011 9.56712 24.0734 9.56712 23.7316ZM9.56712 18.5775C9.56712 18.3227 9.49155 18.0735 9.34997 17.8616C9.20838 17.6497 9.00714 17.4846 8.77169 17.3871C8.53624 17.2895 8.27716 17.264 8.02721 17.3137C7.77726 17.3635 7.54767 17.4862 7.36746 17.6664C7.18726 17.8466 7.06454 18.0762 7.01482 18.3261C6.9651 18.5761 6.99062 18.8352 7.08814 19.0706C7.18567 19.3061 7.35082 19.5073 7.56272 19.6489C7.77462 19.7905 8.02374 19.866 8.27859 19.866C8.62033 19.866 8.94807 19.7303 9.18972 19.4886C9.43137 19.247 9.56712 18.9193 9.56712 18.5775ZM14.7212 23.7316C14.7212 23.4768 14.6457 23.2277 14.5041 23.0158C14.3625 22.8039 14.1613 22.6387 13.9258 22.5412C13.6904 22.4437 13.4313 22.4181 13.1813 22.4679C12.9314 22.5176 12.7018 22.6403 12.5216 22.8205C12.3414 23.0007 12.2187 23.2303 12.1689 23.4803C12.1192 23.7302 12.1447 23.9893 12.2423 24.2247C12.3398 24.4602 12.5049 24.6614 12.7168 24.803C12.9287 24.9446 13.1779 25.0202 13.4327 25.0202C13.7745 25.0202 14.1022 24.8844 14.3438 24.6428C14.5855 24.4011 14.7212 24.0734 14.7212 23.7316ZM14.7212 18.5775C14.7212 18.3227 14.6457 18.0735 14.5041 17.8616C14.3625 17.6497 14.1613 17.4846 13.9258 17.3871C13.6904 17.2895 13.4313 17.264 13.1813 17.3137C12.9314 17.3635 12.7018 17.4862 12.5216 17.6664C12.3414 17.8466 12.2187 18.0762 12.1689 18.3261C12.1192 18.5761 12.1447 18.8352 12.2423 19.0706C12.3398 19.3061 12.5049 19.5073 12.7168 19.6489C12.9287 19.7905 13.1779 19.866 13.4327 19.866C13.7745 19.866 14.1022 19.7303 14.3438 19.4886C14.5855 19.247 14.7212 18.9193 14.7212 18.5775ZM25.0295 23.7316C25.0295 23.3899 24.8937 23.0622 24.6521 22.8205C24.4104 22.5789 24.0827 22.4431 23.741 22.4431H18.5868C18.2451 22.4431 17.9174 22.5789 17.6757 22.8205C17.4341 23.0622 17.2983 23.3899 17.2983 23.7316C17.2983 24.0734 17.4341 24.4011 17.6757 24.6428C17.9174 24.8844 18.2451 25.0202 18.5868 25.0202H23.741C24.0827 25.0202 24.4104 24.8844 24.6521 24.6428C24.8937 24.4011 25.0295 24.0734 25.0295 23.7316ZM18.5868 19.866C18.8417 19.866 19.0908 19.7905 19.3027 19.6489C19.5146 19.5073 19.6798 19.3061 19.7773 19.0706C19.8748 18.8352 19.9003 18.5761 19.8506 18.3261C19.8009 18.0762 19.6782 17.8466 19.498 17.6664C19.3178 17.4862 19.0882 17.3635 18.8382 17.3137C18.5883 17.264 18.3292 17.2895 18.0937 17.3871C17.8583 17.4846 17.657 17.6497 17.5155 17.8616C17.3739 18.0735 17.2983 18.3227 17.2983 18.5775C17.2983 18.9193 17.4341 19.247 17.6757 19.4886C17.9174 19.7303 18.2451 19.866 18.5868 19.866ZM25.0295 18.5775C25.0295 18.3227 24.9539 18.0735 24.8123 17.8616C24.6707 17.6497 24.4695 17.4846 24.2341 17.3871C23.9986 17.2895 23.7395 17.264 23.4896 17.3137C23.2396 17.3635 23.01 17.4862 22.8298 17.6664C22.6496 17.8466 22.5269 18.0762 22.4772 18.3261C22.4275 18.5761 22.453 18.8352 22.5505 19.0706C22.648 19.3061 22.8132 19.5073 23.0251 19.6489C23.237 19.7905 23.4861 19.866 23.741 19.866C24.0827 19.866 24.4104 19.7303 24.6521 19.4886C24.8937 19.247 25.0295 18.9193 25.0295 18.5775ZM25.0295 9.5578C25.0295 8.53258 24.6222 7.54935 23.8973 6.82441C23.1723 6.09948 22.1891 5.69221 21.1639 5.69221H10.8557C9.83043 5.69221 8.84721 6.09948 8.12227 6.82441C7.39733 7.54935 6.99006 8.53258 6.99006 9.5578C6.99006 10.583 7.39733 11.5662 8.12227 12.2912C8.84721 13.0161 9.83043 13.4234 10.8557 13.4234H21.1639C22.1891 13.4234 23.1723 13.0161 23.8973 12.2912C24.6222 11.5662 25.0295 10.583 25.0295 9.5578Z" fill="white"/>
</g>
<defs>
<clipPath id="clip0_3148_3467">
<rect width="30.9247" height="30.9247" fill="white" transform="translate(0.546875 0.538086)"/>
</clipPath>
</defs>
</svg>
