<svg width="37" height="37" viewBox="0 0 37 37" fill="none" xmlns="http://www.w3.org/2000/svg">
<g clip-path="url(#clip0_1_1236)">
<path d="M9.98439 18.1672H15.8078V20.3445H9.98439V18.1672ZM10.1917 23.1439H16.7754V25.3903H7.40967V13.2943H16.5508V15.5407H10.1917V23.1439Z" fill="#1A2252"/>
<path d="M18.7436 25.3903V13.2943H21.0591L28.1958 22.0034H27.0726V13.2943H29.8374V25.3903H27.5391L20.3852 16.6812H21.5084V25.3903H18.7436Z" fill="#1A2252"/>
<path d="M31.98 1.91H5.97998C3.77084 1.91 1.97998 3.70086 1.97998 5.91V31.91C1.97998 34.1191 3.77084 35.91 5.97998 35.91H31.98C34.1891 35.91 35.98 34.1191 35.98 31.91V5.91C35.98 3.70086 34.1891 1.91 31.98 1.91Z" stroke="url(#paint0_linear_1_1236)" stroke-width="2"/>
</g>
<defs>
<linearGradient id="paint0_linear_1_1236" x1="-3.0545" y1="-5.91759" x2="36.98" y2="45.91" gradientUnits="userSpaceOnUse">
<stop stop-color="#FF1360"/>
<stop offset="1" stop-color="#FF8843"/>
</linearGradient>
<clipPath id="clip0_1_1236">
<rect width="36" height="36" fill="white" transform="translate(0.97998 0.910004)"/>
</clipPath>
</defs>
</svg>
