<svg width="25" height="25" viewBox="0 0 25 25" fill="none" xmlns="http://www.w3.org/2000/svg">
<path d="M21.8 11.1699L20.28 9.64987C20.02 9.38987 19.81 8.87987 19.81 8.51987V6.35987C19.81 5.47987 19.09 4.75987 18.21 4.75987H16.06C15.7 4.75987 15.19 4.54987 14.93 4.28987L13.41 2.76987C12.79 2.14987 11.77 2.14987 11.15 2.76987L9.61002 4.28987C9.36002 4.54987 8.85002 4.75987 8.48002 4.75987H6.33002C5.45002 4.75987 4.73002 5.47987 4.73002 6.35987V8.50987C4.73002 8.86987 4.52002 9.37987 4.26002 9.63987L2.74002 11.1599C2.12002 11.7799 2.12002 12.7999 2.74002 13.4199L4.26002 14.9399C4.52002 15.1999 4.73002 15.7099 4.73002 16.0699V18.2199C4.73002 19.0999 5.45002 19.8199 6.33002 19.8199H8.48002C8.84002 19.8199 9.35002 20.0299 9.61002 20.2899L11.13 21.8099C11.75 22.4299 12.77 22.4299 13.39 21.8099L14.91 20.2899C15.17 20.0299 15.68 19.8199 16.04 19.8199H18.19C19.07 19.8199 19.79 19.0999 19.79 18.2199V16.0699C19.79 15.7099 20 15.1999 20.26 14.9399L21.78 13.4199C22.43 12.8099 22.43 11.7899 21.8 11.1699ZM8.27002 9.29987C8.27002 8.74987 8.72002 8.29987 9.27002 8.29987C9.82002 8.29987 10.27 8.74987 10.27 9.29987C10.27 9.84987 9.83002 10.2999 9.27002 10.2999C8.72002 10.2999 8.27002 9.84987 8.27002 9.29987ZM9.80002 15.8299C9.65002 15.9799 9.46002 16.0499 9.27002 16.0499C9.08002 16.0499 8.89003 15.9799 8.74003 15.8299C8.45003 15.5399 8.45003 15.0599 8.74003 14.7699L14.74 8.76987C15.03 8.47987 15.51 8.47987 15.8 8.76987C16.09 9.05987 16.09 9.53987 15.8 9.82987L9.80002 15.8299ZM15.27 16.2999C14.71 16.2999 14.26 15.8499 14.26 15.2999C14.26 14.7499 14.71 14.2999 15.26 14.2999C15.81 14.2999 16.26 14.7499 16.26 15.2999C16.26 15.8499 15.82 16.2999 15.27 16.2999Z" fill="white"/>
</svg>
