<svg width="25" height="25" viewBox="0 0 25 25" fill="none" xmlns="http://www.w3.org/2000/svg">
<path d="M5.04999 15.3C4.10999 15.3 3.23999 15.63 2.54999 16.18C1.62999 16.91 1.04999 18.04 1.04999 19.3C1.04999 21.51 2.83999 23.3 5.04999 23.3C6.05999 23.3 6.97999 22.92 7.68999 22.3C8.51999 21.57 9.04999 20.5 9.04999 19.3C9.04999 17.09 7.25999 15.3 5.04999 15.3ZM6.04999 19.55C6.04999 19.81 5.90999 20.06 5.68999 20.19L4.43999 20.94C4.31999 21.02 4.17999 21.05 4.04999 21.05C3.79999 21.05 3.54999 20.92 3.40999 20.69C3.19999 20.33 3.30999 19.87 3.66999 19.66L4.55999 19.13V18.05C4.54999 17.64 4.88999 17.3 5.29999 17.3C5.70999 17.3 6.04999 17.64 6.04999 18.05V19.55Z" fill="white"/>
<path d="M14.9 4.25004V8.05004H13.4V4.25004C13.4 3.98004 13.16 3.85004 13 3.85004C12.95 3.85004 12.9 3.86004 12.85 3.88004L4.91999 6.87004C4.38999 7.07004 4.04999 7.57004 4.04999 8.14004V8.81004C3.13999 9.49004 2.54999 10.58 2.54999 11.81V8.14004C2.54999 6.95004 3.27999 5.89004 4.38999 5.47004L12.33 2.47004C12.55 2.39004 12.78 2.35004 13 2.35004C14 2.35004 14.9 3.16004 14.9 4.25004Z" fill="white"/>
<path d="M21.55 14.8V15.8C21.55 16.07 21.34 16.29 21.06 16.3H19.6C19.07 16.3 18.59 15.91 18.55 15.39C18.52 15.08 18.64 14.79 18.84 14.59C19.02 14.4 19.27 14.3 19.54 14.3H21.05C21.34 14.31 21.55 14.53 21.55 14.8Z" fill="white"/>
<path d="M19.53 13.25H20.55C21.1 13.25 21.55 12.8 21.55 12.25V11.81C21.55 9.73999 19.86 8.04999 17.79 8.04999H6.30999C5.45999 8.04999 4.67999 8.32999 4.04999 8.80999C3.13999 9.48999 2.54999 10.58 2.54999 11.81V13.59C2.54999 13.97 2.94999 14.21 3.30999 14.09C3.86999 13.9 4.45999 13.8 5.04999 13.8C8.07999 13.8 10.55 16.27 10.55 19.3C10.55 20.02 10.36 20.81 10.06 21.51C9.89999 21.87 10.15 22.3 10.54 22.3H17.79C19.86 22.3 21.55 20.61 21.55 18.54V18.35C21.55 17.8 21.1 17.35 20.55 17.35H19.68C18.72 17.35 17.8 16.76 17.55 15.83C17.35 15.07 17.59 14.33 18.09 13.85C18.46 13.47 18.97 13.25 19.53 13.25ZM14.05 13.05H9.04999C8.63999 13.05 8.29999 12.71 8.29999 12.3C8.29999 11.89 8.63999 11.55 9.04999 11.55H14.05C14.46 11.55 14.8 11.89 14.8 12.3C14.8 12.71 14.46 13.05 14.05 13.05Z" fill="white"/>
</svg>
