<svg width="25" height="25" viewBox="0 0 25 25" fill="none" xmlns="http://www.w3.org/2000/svg">
<path d="M20.58 12.3V18.3C20.58 20.51 18.79 22.3 16.58 22.3H8.57999C6.36999 22.3 4.57999 20.51 4.57999 18.3V12.3C4.57999 11.75 5.02999 11.3 5.57999 11.3H7.54999C8.09999 11.3 8.54999 11.75 8.54999 12.3V15.44C8.54999 16.18 8.95999 16.86 9.60999 17.21C9.89999 17.37 10.22 17.45 10.55 17.45C10.93 17.45 11.31 17.34 11.64 17.12L12.59 16.5L13.47 17.09C14.08 17.5 14.86 17.55 15.51 17.2C16.17 16.85 16.58 16.18 16.58 15.43V12.3C16.58 11.75 17.03 11.3 17.58 11.3H19.58C20.13 11.3 20.58 11.75 20.58 12.3Z" fill="white"/>
<path d="M22.08 7.29999V8.29999C22.08 9.39999 21.55 10.3 20.08 10.3H5.07999C3.54999 10.3 3.07999 9.39999 3.07999 8.29999V7.29999C3.07999 6.19999 3.54999 5.29999 5.07999 5.29999H20.08C21.55 5.29999 22.08 6.19999 22.08 7.29999Z" fill="white"/>
<path d="M12.22 5.29993H6.69998C6.35998 4.92993 6.36998 4.35993 6.72998 3.99993L8.14998 2.57993C8.51998 2.20993 9.12998 2.20993 9.49998 2.57993L12.22 5.29993Z" fill="white"/>
<path d="M18.45 5.29993H12.93L15.65 2.57993C16.02 2.20993 16.63 2.20993 17 2.57993L18.42 3.99993C18.78 4.35993 18.79 4.92993 18.45 5.29993Z" fill="white"/>
<path d="M14.55 11.3C15.1 11.3 15.55 11.75 15.55 12.3V15.43C15.55 16.23 14.66 16.71 14 16.26L13.1 15.66C12.77 15.44 12.34 15.44 12 15.66L11.06 16.28C10.4 16.72 9.51999 16.24 9.51999 15.45V12.3C9.51999 11.75 9.96999 11.3 10.52 11.3H14.55Z" fill="white"/>
</svg>
