<svg width="34" height="34" viewBox="0 0 34 34" fill="none" xmlns="http://www.w3.org/2000/svg">
<g clip-path="url(#clip0_1_1204)">
<path d="M17.48 33.41C26.5927 33.41 33.98 26.0227 33.98 16.91C33.98 7.7973 26.5927 0.410004 17.48 0.410004C8.36728 0.410004 0.97998 7.7973 0.97998 16.91C0.97998 26.0227 8.36728 33.41 17.48 33.41Z" fill="#C13584"/>
<path d="M17.4828 8.79399C20.1262 8.79399 20.4393 8.80405 21.4832 8.85166C22.4485 8.89571 22.9727 9.057 23.3216 9.19255C23.7837 9.37215 24.1134 9.58667 24.4598 9.93308C24.8063 10.2796 25.0208 10.6093 25.2004 11.0714C25.336 11.4203 25.4973 11.9445 25.5413 12.9098C25.589 13.9536 25.5991 14.2668 25.5991 16.9101C25.5991 19.5536 25.589 19.8666 25.5413 20.9106C25.4973 21.8759 25.336 22.4 25.2004 22.7489C25.0208 23.2109 24.8063 23.5408 24.4599 23.8872C24.1134 24.2336 23.7837 24.4481 23.3216 24.6277C22.9727 24.7634 22.4485 24.9246 21.4832 24.9686C20.4395 25.0162 20.1265 25.0264 17.4828 25.0264C14.8392 25.0264 14.5262 25.0162 13.4824 24.9686C12.5171 24.9246 11.993 24.7634 11.6441 24.6277C11.182 24.4481 10.8522 24.2336 10.5058 23.8872C10.1594 23.5408 9.94481 23.2109 9.76521 22.7489C9.62966 22.4 9.46838 21.8759 9.42432 20.9106C9.37672 19.8666 9.36665 19.5536 9.36665 16.9101C9.36665 14.2668 9.37672 13.9536 9.42432 12.9098C9.46838 11.9445 9.62966 11.4203 9.76521 11.0714C9.94481 10.6093 10.1593 10.2796 10.5058 9.93317C10.8522 9.58667 11.182 9.37215 11.6441 9.19255C11.993 9.057 12.5171 8.89571 13.4824 8.85166C14.5263 8.80405 14.8394 8.79399 17.4828 8.79399ZM17.4828 7.01019C14.7941 7.01019 14.4571 7.02158 13.4011 7.06976C12.3474 7.11782 11.6276 7.28519 10.998 7.5299C10.3469 7.7829 9.79483 8.12141 9.24447 8.67181C8.69408 9.22216 8.35556 9.77422 8.1026 10.4252C7.85785 11.055 7.69048 11.7748 7.64241 12.8284C7.59424 13.8843 7.58284 14.2215 7.58284 16.9101C7.58284 19.5989 7.59424 19.9359 7.64241 20.9918C7.69048 22.0456 7.85785 22.7653 8.1026 23.395C8.35556 24.046 8.69408 24.5981 9.24447 25.1486C9.79483 25.6989 10.3469 26.0374 10.998 26.2904C11.6276 26.5351 12.3474 26.7025 13.4011 26.7505C14.4571 26.7987 14.7941 26.8101 17.4828 26.8101C20.1715 26.8101 20.5086 26.7987 21.5646 26.7505C22.6184 26.7025 23.338 26.5351 23.9678 26.2904C24.6188 26.0374 25.1708 25.6989 25.7212 25.1486C26.2716 24.5981 26.6102 24.046 26.8632 23.395C27.1078 22.7653 27.2752 22.0456 27.3232 20.9918C27.3715 19.9359 27.3828 19.5989 27.3828 16.9101C27.3828 14.2215 27.3715 13.8843 27.3232 12.8284C27.2752 11.7748 27.1078 11.055 26.8632 10.4252C26.6102 9.77422 26.2716 9.22216 25.7212 8.67181C25.1708 8.12141 24.6188 7.7829 23.9678 7.5299C23.338 7.28519 22.6184 7.11782 21.5646 7.06976C20.5086 7.02158 20.1715 7.01019 17.4828 7.01019Z" fill="white"/>
<path d="M17.4863 11.8307C14.6785 11.8307 12.4025 14.1068 12.4025 16.9145C12.4025 19.7221 14.6785 21.9983 17.4863 21.9983C20.294 21.9983 22.57 19.7221 22.57 16.9145C22.57 14.1068 20.294 11.8307 17.4863 11.8307ZM17.4863 20.2145C15.6637 20.2145 14.1863 18.7371 14.1863 16.9145C14.1863 15.092 15.6637 13.6146 17.4863 13.6146C19.3088 13.6146 20.7863 15.092 20.7863 16.9145C20.7863 18.7371 19.3088 20.2145 17.4863 20.2145Z" fill="white"/>
<path d="M23.9595 11.6268C23.9595 12.2829 23.4276 12.8147 22.7715 12.8147C22.1154 12.8147 21.5835 12.2829 21.5835 11.6268C21.5835 10.9706 22.1154 10.4387 22.7715 10.4387C23.4276 10.4387 23.9595 10.9706 23.9595 11.6268Z" fill="white"/>
</g>
<defs>
<clipPath id="clip0_1_1204">
<rect width="33" height="33" fill="white" transform="translate(0.97998 0.410004)"/>
</clipPath>
</defs>
</svg>
