<svg width="81" height="81" viewBox="0 0 81 81" fill="none" xmlns="http://www.w3.org/2000/svg">
<g clip-path="url(#clip0_1_465)">
<path d="M60.8 38.8398C61.4 39.0398 61.6 39.6398 61.4 40.2398C61.3 40.5398 61.1 40.7398 60.8 40.8398L30.5 58.3398C29.5 58.9398 28.8 58.4398 28.8 57.3398V22.3398C28.8 21.2398 29.6 20.8398 30.5 21.3398L60.8 38.8398Z" fill="white"/>
<path opacity="0.75" d="M3 40.8398C3 20.1398 19.8 3.33984 40.5 3.33984C61.2 3.33984 78 20.1398 78 40.8398C78 61.5398 61.2 78.3398 40.5 78.3398C19.8 78.3398 3 61.5398 3 40.8398Z" stroke="white" stroke-width="5"/>
<path d="M83 40.8398C83 20.1398 99.8 3.33984 120.5 3.33984C141.2 3.33984 158 20.1398 158 40.8398C158 61.5398 141.2 78.3398 120.5 78.3398C99.8 78.3398 83 61.5398 83 40.8398Z" stroke="white" stroke-width="5"/>
</g>
<defs>
<clipPath id="clip0_1_465">
<rect width="400" height="120" fill="white" transform="translate(0.5 -38.1602)"/>
</clipPath>
</defs>
</svg>
