<svg width="128" height="128" viewBox="0 0 128 128" fill="none" xmlns="http://www.w3.org/2000/svg">
<rect x="49.7656" y="15.5" width="28.3423" height="51.1795" rx="14.1712" stroke="url(#paint0_linear_3031_4081)" stroke-width="5"/>
<mask id="mask0_3031_4081" style="mask-type:alpha" maskUnits="userSpaceOnUse" x="47" y="13" width="34" height="57">
<rect x="55.6012" y="21.3356" width="16.6712" height="39.5084" rx="8.33558" stroke="#601CD9" stroke-width="16.6712"/>
</mask>
<g mask="url(#mask0_3031_4081)">
<g filter="url(#filter0_f_3031_4081)">
<rect x="48.1856" y="13.92" width="31.5023" height="54.3395" rx="15.7511" stroke="white" stroke-width="1.84003"/>
</g>
</g>
<g opacity="0.5" filter="url(#filter1_d_3031_4081)">
<path fill-rule="evenodd" clip-rule="evenodd" d="M78.3231 45.8856C77.815 45.8856 77.4031 45.4737 77.4031 44.9656V30.5847C77.4031 29.0404 77.143 27.5568 76.6643 26.1753C76.4503 25.5579 76.8863 24.8754 77.5398 24.8754C77.9039 24.8754 78.2338 25.0959 78.3563 25.4388C78.9305 27.0469 79.2431 28.7793 79.2431 30.5847V44.9656C79.2431 45.4737 78.8312 45.8856 78.3231 45.8856Z" fill="white"/>
</g>
<rect x="73.2969" y="37.2074" width="10.5051" height="26.9479" rx="5.25256" fill="#FF8843"/>
<mask id="mask1_3031_4081" style="mask-type:alpha" maskUnits="userSpaceOnUse" x="73" y="37" width="11" height="28">
<rect x="73.2969" y="37.2074" width="10.5051" height="26.9479" rx="5.25256" fill="#5208D7"/>
</mask>
<g mask="url(#mask1_3031_4081)">
<g filter="url(#filter2_f_3031_4081)">
<path d="M71.4688 37.6642H85.1711" stroke="white" stroke-width="1.84003"/>
</g>
</g>
<rect x="44.0625" y="37.2074" width="10.5051" height="26.9479" rx="5.25256" fill="#FF8843"/>
<mask id="mask2_3031_4081" style="mask-type:alpha" maskUnits="userSpaceOnUse" x="44" y="37" width="11" height="28">
<rect x="44.0625" y="37.2074" width="10.5051" height="26.9479" rx="5.25256" fill="#5208D7"/>
</mask>
<g mask="url(#mask2_3031_4081)">
<g filter="url(#filter3_f_3031_4081)">
<path d="M42.2344 37.6642H55.9367" stroke="white" stroke-width="1.84003"/>
</g>
</g>
<path opacity="0.55" d="M80.6172 37.2075V44.9721" stroke="url(#paint1_linear_3031_4081)" stroke-width="1.84003"/>
<path opacity="0.22" d="M50.9297 37.2075V44.9721" stroke="url(#paint2_linear_3031_4081)" stroke-width="1.84003"/>
<circle cx="63.993" cy="63.9859" r="26.7195" fill="url(#paint3_linear_3031_4081)"/>
<path d="M69.5482 86.3555C69.7936 87.3438 70.7965 87.9527 71.7639 87.6349C74.9783 86.5788 77.9502 84.8762 80.4934 82.625C83.4976 79.9656 85.8146 76.6195 87.2468 72.8716C88.679 69.1237 89.184 65.0851 88.7188 61.0999C88.325 57.7265 87.2459 54.4759 85.5549 51.5452C85.046 50.6632 83.8926 50.4481 83.0507 51.0209C82.2088 51.5937 81.9984 52.7372 82.4959 53.6257C83.8589 56.0598 84.7313 58.7445 85.0561 61.5275C85.4524 64.9223 85.0221 68.3626 83.8021 71.5552C82.5821 74.7479 80.6084 77.5984 78.0492 79.8638C75.9512 81.7209 73.5108 83.1397 70.8718 84.0446C69.9086 84.3749 69.3028 85.3672 69.5482 86.3555Z" fill="white"/>
<g style="mix-blend-mode:multiply" opacity="0.99" filter="url(#filter4_f_3031_4081)">
<circle cx="63.9995" cy="63.9859" r="22.6088" fill="#EF6A1C"/>
</g>
<circle opacity="0.9" cx="64.001" cy="63.9859" r="13.9307" fill="#FFFFFE"/>
<circle cx="64.0073" cy="63.9859" r="3.88233" fill="#352944"/>
<rect x="62.8672" y="62.3873" width="2.28372" height="7.30791" rx="1.14186" fill="#352944"/>
<g opacity="0.25" filter="url(#filter5_f_3031_4081)">
<path d="M81.1979 46.5493C81.3536 46.3914 81.352 46.1368 81.1916 45.9836C76.5216 41.5238 70.2961 39.0495 63.8283 39.0941C57.3606 39.1387 51.1697 41.6987 46.5618 46.2224C46.4035 46.3778 46.4053 46.6325 46.5632 46.7882C46.7212 46.9439 46.9753 46.9418 47.1337 46.7865C51.592 42.4144 57.5791 39.9404 63.8339 39.8973C70.0886 39.8541 76.1093 42.2453 80.6275 46.5555C80.788 46.7086 81.0421 46.7072 81.1979 46.5493Z" fill="white"/>
</g>
<defs>
<filter id="filter0_f_3031_4081" x="41.7455" y="7.47992" width="44.3839" height="67.2197" filterUnits="userSpaceOnUse" color-interpolation-filters="sRGB">
<feFlood flood-opacity="0" result="BackgroundImageFix"/>
<feBlend mode="normal" in="SourceGraphic" in2="BackgroundImageFix" result="shape"/>
<feGaussianBlur stdDeviation="2.76004" result="effect1_foregroundBlur_3031_4081"/>
</filter>
<filter id="filter1_d_3031_4081" x="69.2493" y="24.8754" width="17.353" height="35.7304" filterUnits="userSpaceOnUse" color-interpolation-filters="sRGB">
<feFlood flood-opacity="0" result="BackgroundImageFix"/>
<feColorMatrix in="SourceAlpha" type="matrix" values="0 0 0 0 0 0 0 0 0 0 0 0 0 0 0 0 0 0 127 0" result="hardAlpha"/>
<feOffset dy="7.36011"/>
<feGaussianBlur stdDeviation="3.68005"/>
<feComposite in2="hardAlpha" operator="out"/>
<feColorMatrix type="matrix" values="0 0 0 0 0 0 0 0 0 0 0 0 0 0 0 0 0 0 0.25 0"/>
<feBlend mode="normal" in2="BackgroundImageFix" result="effect1_dropShadow_3031_4081"/>
<feBlend mode="normal" in="SourceGraphic" in2="effect1_dropShadow_3031_4081" result="shape"/>
</filter>
<filter id="filter2_f_3031_4081" x="65.9487" y="31.2241" width="24.7433" height="12.8802" filterUnits="userSpaceOnUse" color-interpolation-filters="sRGB">
<feFlood flood-opacity="0" result="BackgroundImageFix"/>
<feBlend mode="normal" in="SourceGraphic" in2="BackgroundImageFix" result="shape"/>
<feGaussianBlur stdDeviation="2.76004" result="effect1_foregroundBlur_3031_4081"/>
</filter>
<filter id="filter3_f_3031_4081" x="36.7143" y="31.2241" width="24.7433" height="12.8802" filterUnits="userSpaceOnUse" color-interpolation-filters="sRGB">
<feFlood flood-opacity="0" result="BackgroundImageFix"/>
<feBlend mode="normal" in="SourceGraphic" in2="BackgroundImageFix" result="shape"/>
<feGaussianBlur stdDeviation="2.76004" result="effect1_foregroundBlur_3031_4081"/>
</filter>
<filter id="filter4_f_3031_4081" x="0.910042" y="0.896502" width="126.18" height="126.179" filterUnits="userSpaceOnUse" color-interpolation-filters="sRGB">
<feFlood flood-opacity="0" result="BackgroundImageFix"/>
<feBlend mode="normal" in="SourceGraphic" in2="BackgroundImageFix" result="shape"/>
<feGaussianBlur stdDeviation="20.2403" result="effect1_foregroundBlur_3031_4081"/>
</filter>
<filter id="filter5_f_3031_4081" x="39.0852" y="31.7334" width="49.5874" height="22.5307" filterUnits="userSpaceOnUse" color-interpolation-filters="sRGB">
<feFlood flood-opacity="0" result="BackgroundImageFix"/>
<feBlend mode="normal" in="SourceGraphic" in2="BackgroundImageFix" result="shape"/>
<feGaussianBlur stdDeviation="3.68005" result="effect1_foregroundBlur_3031_4081"/>
</filter>
<linearGradient id="paint0_linear_3031_4081" x1="63.9368" y1="13" x2="63.9368" y2="69.1795" gradientUnits="userSpaceOnUse">
<stop stop-color="#FF8843"/>
<stop offset="1" stop-color="#FF1360"/>
</linearGradient>
<linearGradient id="paint1_linear_3031_4081" x1="81.0859" y1="-199.628" x2="82.1972" y2="-199.628" gradientUnits="userSpaceOnUse">
<stop stop-color="white"/>
<stop offset="1" stop-color="#FF8843"/>
</linearGradient>
<linearGradient id="paint2_linear_3031_4081" x1="51.3984" y1="-199.628" x2="52.5097" y2="-199.628" gradientUnits="userSpaceOnUse">
<stop stop-color="white"/>
<stop offset="1" stop-color="#FF8843"/>
</linearGradient>
<linearGradient id="paint3_linear_3031_4081" x1="63.993" y1="37.2664" x2="63.993" y2="90.7055" gradientUnits="userSpaceOnUse">
<stop stop-color="#FF8843"/>
<stop offset="1" stop-color="#FF1360"/>
</linearGradient>
</defs>
</svg>
