<svg width="34" height="34" viewBox="0 0 34 34" fill="none" xmlns="http://www.w3.org/2000/svg">
<g clip-path="url(#clip0_1_1211)">
<path d="M33.98 16.91C33.98 7.79731 26.5927 0.410004 17.48 0.410004C8.36728 0.410004 0.97998 7.79731 0.97998 16.91C0.97998 26.0227 8.36728 33.41 17.48 33.41C26.5927 33.41 33.98 26.0227 33.98 16.91Z" fill="#419FD9"/>
<path d="M33.98 16.91C33.98 7.79731 26.5927 0.410004 17.48 0.410004C8.36728 0.410004 0.97998 7.79731 0.97998 16.91C0.97998 26.0227 8.36728 33.41 17.48 33.41C26.5927 33.41 33.98 26.0227 33.98 16.91Z" fill="url(#paint0_linear_1_1211)"/>
<path d="M8.39629 16.5463C13.1946 14.4118 16.3942 13.0046 17.9951 12.3247C22.5661 10.3836 23.5159 10.0464 24.135 10.0351C24.2711 10.0328 24.5755 10.0673 24.7728 10.2306C24.9393 10.3686 24.9851 10.5549 25.007 10.6857C25.0289 10.8166 25.0562 11.1145 25.0345 11.3473C24.7868 14.0046 23.7151 20.4533 23.1697 23.4295C22.939 24.6889 22.4847 25.1111 22.0449 25.1525C21.0891 25.2423 20.3633 24.5075 19.4375 23.8879C17.9888 22.9184 17.1704 22.3149 15.7643 21.3687C14.1392 20.2753 15.1926 19.6743 16.1188 18.6922C16.3612 18.4352 20.5725 14.5241 20.6541 14.1693C20.6643 14.1249 20.6737 13.9594 20.5775 13.8722C20.4812 13.7848 20.3393 13.8147 20.2367 13.8384C20.0914 13.8721 17.7772 15.4339 13.294 18.5237C12.6371 18.9843 12.0421 19.2087 11.5091 19.1969C10.9213 19.184 9.79088 18.8576 8.95049 18.5787C7.91972 18.2366 7.10048 18.0557 7.17181 17.4748C7.20897 17.1722 7.61714 16.8626 8.39629 16.5463Z" fill="white"/>
</g>
<defs>
<linearGradient id="paint0_linear_1_1211" x1="17.48" y1="0.410004" x2="17.48" y2="33.1652" gradientUnits="userSpaceOnUse">
<stop stop-color="#2AABEE"/>
<stop offset="1" stop-color="#229ED9"/>
</linearGradient>
<clipPath id="clip0_1_1211">
<rect width="33" height="33" fill="white" transform="translate(0.97998 0.410004)"/>
</clipPath>
</defs>
</svg>
