<svg width="34" height="34" viewBox="0 0 34 34" fill="none" xmlns="http://www.w3.org/2000/svg">
<g clip-path="url(#clip0_1_1217)">
<path d="M33.98 16.91C33.98 7.79731 26.5927 0.410004 17.48 0.410004C8.36728 0.410004 0.97998 7.79731 0.97998 16.91C0.97998 26.0227 8.36728 33.41 17.48 33.41C26.5927 33.41 33.98 26.0227 33.98 16.91Z" fill="#675DA9"/>
<path d="M25.5609 8.78688C25.0151 8.28509 22.8054 6.67851 17.88 6.6565C17.88 6.6565 12.0743 6.30437 9.24408 8.90131C7.6683 10.4771 7.1137 12.7791 7.05648 15.6401C6.99926 18.4968 6.92443 23.8536 12.0875 25.3061H12.0919L12.0875 27.5201C12.0875 27.5201 12.0567 28.418 12.6465 28.5985C13.3596 28.8186 13.7821 28.1363 14.4644 27.4013C14.8385 26.9964 15.3535 26.4065 15.7453 25.9532C19.2754 26.2481 21.9912 25.5702 22.2993 25.469C23.0123 25.2357 27.0486 24.7207 27.7044 19.3639C28.3823 13.8531 27.3743 10.3626 25.5609 8.78688ZM26.1594 18.9766C25.6049 23.4487 22.3345 23.7304 21.7315 23.924C21.4762 24.0077 19.0905 24.6018 16.0886 24.4038C16.0886 24.4038 13.8525 27.102 13.1571 27.8018C13.0471 27.9118 12.9194 27.9559 12.8358 27.9338C12.717 27.903 12.6818 27.7622 12.6862 27.5553C12.6862 27.2561 12.7038 23.8712 12.7038 23.8712C12.6994 23.8712 12.6994 23.8712 12.7038 23.8712C8.33295 22.6607 8.58824 18.1007 8.63666 15.715C8.68508 13.3293 9.13404 11.3706 10.4678 10.0545C12.8578 7.88895 17.792 8.21027 17.792 8.21027C21.956 8.22787 23.9498 9.48233 24.412 9.90053C25.9481 11.221 26.7317 14.3681 26.1594 18.9766Z" fill="white"/>
<path d="M19.9085 15.7986C19.7633 15.7986 19.64 15.6842 19.6312 15.5346C19.5828 14.5882 19.1382 14.126 18.2315 14.0776C18.0774 14.0688 17.9586 13.9368 17.9674 13.7827C17.9762 13.6286 18.1082 13.5098 18.2623 13.5186C19.4595 13.5846 20.1286 14.2713 20.1902 15.5038C20.199 15.6578 20.0802 15.7898 19.9261 15.7942C19.9173 15.7986 19.9129 15.7986 19.9085 15.7986Z" fill="white"/>
<path d="M21.3353 16.274H21.3309C21.1768 16.2696 21.0535 16.142 21.0579 15.9879C21.08 15.0372 20.807 14.2669 20.226 13.6331C19.6495 12.9992 18.8528 12.6559 17.8007 12.581C17.6467 12.5678 17.5322 12.4358 17.5454 12.2817C17.5586 12.1277 17.6907 12.0133 17.8448 12.0265C19.0332 12.1145 19.9708 12.5282 20.6398 13.2589C21.3132 13.994 21.639 14.914 21.617 16.0011C21.6126 16.1552 21.4849 16.274 21.3353 16.274Z" fill="white"/>
<path d="M22.7962 16.8462C22.6421 16.8462 22.5189 16.7229 22.5189 16.5689C22.5057 14.8655 22.0171 13.567 21.0224 12.5942C20.0408 11.6347 18.7951 11.1461 17.3294 11.1329C17.1754 11.1329 17.0521 11.0053 17.0521 10.8512C17.0521 10.6971 17.1798 10.5739 17.3294 10.5739C18.9448 10.5871 20.3181 11.1285 21.4053 12.1937C22.4969 13.2589 23.0559 14.729 23.0735 16.5601C23.0779 16.7185 22.9547 16.8462 22.7962 16.8462C22.8006 16.8462 22.8006 16.8462 22.7962 16.8462Z" fill="white"/>
<path d="M18.2976 19.245C18.2976 19.245 18.6894 19.2802 18.9007 19.0205L19.31 18.5056C19.5081 18.2503 19.9879 18.0874 20.4545 18.3471C20.7142 18.4924 21.1851 18.7828 21.4756 18.9985C21.7881 19.2274 22.422 19.7556 22.4264 19.76C22.7301 20.0153 22.8005 20.3894 22.5936 20.79C22.5936 20.79 22.5936 20.7944 22.5936 20.7988C22.3823 21.1729 22.0962 21.5251 21.7397 21.8507C21.7353 21.8507 21.7353 21.8551 21.7309 21.8551C21.436 22.1016 21.1455 22.2425 20.8638 22.2733C20.8286 22.2821 20.789 22.2821 20.7362 22.2821C20.6129 22.2821 20.4897 22.2645 20.3664 22.2249L20.3576 22.2117C19.9175 22.0884 19.1868 21.7803 17.972 21.1069C17.1797 20.6711 16.5238 20.2266 15.9648 19.782C15.6699 19.5487 15.3705 19.289 15.0625 18.9809C15.0537 18.9721 15.0405 18.9589 15.0317 18.9501C15.0229 18.9413 15.0097 18.928 15.0009 18.9192C14.9921 18.9104 14.9789 18.8972 14.9701 18.8884C14.9613 18.8796 14.9481 18.8664 14.9393 18.8576C14.6355 18.5496 14.3714 18.2503 14.1382 17.9554C13.6936 17.4007 13.249 16.7405 12.8132 15.9482C12.1398 14.729 11.8317 13.9983 11.7085 13.5625L11.6953 13.5537C11.6557 13.4305 11.6381 13.3072 11.6381 13.184C11.6381 13.1311 11.6381 13.0915 11.6469 13.0563C11.6821 12.7702 11.8229 12.4842 12.065 12.1893C12.065 12.1849 12.0694 12.1849 12.0694 12.1805C12.3951 11.8195 12.7472 11.5378 13.1213 11.3265C13.1213 11.3265 13.1257 11.3265 13.1301 11.3265C13.5263 11.1196 13.9005 11.1901 14.1602 11.4938C14.1602 11.4938 14.6928 12.132 14.9217 12.4446C15.1373 12.7394 15.4278 13.206 15.573 13.4657C15.8327 13.9323 15.6699 14.412 15.4146 14.6101L14.8997 15.0195C14.64 15.2308 14.6752 15.6225 14.6752 15.6225C14.6752 15.6225 15.4366 18.5188 18.2976 19.245Z" fill="white"/>
</g>
<defs>
<clipPath id="clip0_1_1217">
<rect width="33" height="33" fill="white" transform="translate(0.97998 0.410004)"/>
</clipPath>
</defs>
</svg>
