<svg width="253" height="41" viewBox="0 0 253 41" fill="none" xmlns="http://www.w3.org/2000/svg">
<rect width="253" height="40" transform="translate(0 0.780273)" fill="#222222"/>
<path d="M51.1466 25.8794C50.6133 25.8794 50.159 25.7343 49.7837 25.444C49.4085 25.1513 49.1217 24.7277 48.9235 24.1731C48.7253 23.6161 48.6261 22.9435 48.6261 22.1553C48.6261 21.3717 48.7253 20.7027 48.9235 20.1481C49.1241 19.5911 49.412 19.1663 49.7873 18.8737C50.1649 18.5787 50.618 18.4312 51.1466 18.4312C51.6753 18.4312 52.1272 18.5787 52.5025 18.8737C52.8801 19.1663 53.168 19.5911 53.3663 20.1481C53.5669 20.7027 53.6672 21.3717 53.6672 22.1553C53.6672 22.9435 53.568 23.6161 53.3698 24.1731C53.1715 24.7277 52.8848 25.1513 52.5096 25.444C52.1343 25.7343 51.68 25.8794 51.1466 25.8794ZM51.1466 25.1006C51.6753 25.1006 52.0859 24.8457 52.3786 24.3359C52.6712 23.8262 52.8175 23.0993 52.8175 22.1553C52.8175 21.5275 52.7503 20.993 52.6158 20.5516C52.4836 20.1103 52.2924 19.774 52.0423 19.5427C51.7945 19.3114 51.4959 19.1958 51.1466 19.1958C50.6227 19.1958 50.2133 19.4542 49.9183 19.9711C49.6232 20.4856 49.4757 21.2136 49.4757 22.1553C49.4757 22.783 49.5418 23.3164 49.674 23.7554C49.8062 24.1943 49.9961 24.5283 50.2439 24.7572C50.4941 24.9861 50.795 25.1006 51.1466 25.1006ZM57.3771 25.8794C56.8437 25.8794 56.3894 25.7343 56.0142 25.444C55.639 25.1513 55.3522 24.7277 55.154 24.1731C54.9557 23.6161 54.8566 22.9435 54.8566 22.1553C54.8566 21.3717 54.9557 20.7027 55.154 20.1481C55.3546 19.5911 55.6425 19.1663 56.0177 18.8737C56.3953 18.5787 56.8485 18.4312 57.3771 18.4312C57.9058 18.4312 58.3577 18.5787 58.733 18.8737C59.1106 19.1663 59.3985 19.5911 59.5967 20.1481C59.7973 20.7027 59.8976 21.3717 59.8976 22.1553C59.8976 22.9435 59.7985 23.6161 59.6003 24.1731C59.402 24.7277 59.1153 25.1513 58.74 25.444C58.3648 25.7343 57.9105 25.8794 57.3771 25.8794ZM57.3771 25.1006C57.9058 25.1006 58.3164 24.8457 58.609 24.3359C58.9017 23.8262 59.048 23.0993 59.048 22.1553C59.048 21.5275 58.9808 20.993 58.8462 20.5516C58.7141 20.1103 58.5229 19.774 58.2727 19.5427C58.0249 19.3114 57.7264 19.1958 57.3771 19.1958C56.8532 19.1958 56.4437 19.4542 56.1487 19.9711C55.8537 20.4856 55.7062 21.2136 55.7062 22.1553C55.7062 22.783 55.7723 23.3164 55.9045 23.7554C56.0366 24.1943 56.2266 24.5283 56.4744 24.7572C56.7246 24.9861 57.0255 25.1006 57.3771 25.1006ZM61.8659 24.8528C61.6912 24.8528 61.5414 24.7902 61.4163 24.6652C61.2912 24.5401 61.2287 24.3902 61.2287 24.2156C61.2287 24.0409 61.2912 23.8911 61.4163 23.766C61.5414 23.6409 61.6912 23.5784 61.8659 23.5784C62.0405 23.5784 62.1904 23.6409 62.3155 23.766C62.4406 23.8911 62.5031 24.0409 62.5031 24.2156C62.5031 24.3312 62.4736 24.4374 62.4146 24.5342C62.358 24.6309 62.2812 24.7088 62.1845 24.7678C62.0901 24.8245 61.9839 24.8528 61.8659 24.8528ZM61.8659 21.1853C61.6912 21.1853 61.5414 21.1228 61.4163 20.9977C61.2912 20.8726 61.2287 20.7227 61.2287 20.5481C61.2287 20.3735 61.2912 20.2236 61.4163 20.0985C61.5414 19.9734 61.6912 19.9109 61.8659 19.9109C62.0405 19.9109 62.1904 19.9734 62.3155 20.0985C62.4406 20.2236 62.5031 20.3735 62.5031 20.5481C62.5031 20.6637 62.4736 20.7699 62.4146 20.8667C62.358 20.9635 62.2812 21.0413 62.1845 21.1003C62.0901 21.157 61.9839 21.1853 61.8659 21.1853ZM66.3529 25.8794C65.8195 25.8794 65.3652 25.7343 64.99 25.444C64.6147 25.1513 64.328 24.7277 64.1297 24.1731C63.9315 23.6161 63.8324 22.9435 63.8324 22.1553C63.8324 21.3717 63.9315 20.7027 64.1297 20.1481C64.3303 19.5911 64.6183 19.1663 64.9935 18.8737C65.3711 18.5787 65.8242 18.4312 66.3529 18.4312C66.8815 18.4312 67.3335 18.5787 67.7087 18.8737C68.0863 19.1663 68.3742 19.5911 68.5725 20.1481C68.7731 20.7027 68.8734 21.3717 68.8734 22.1553C68.8734 22.9435 68.7743 23.6161 68.576 24.1731C68.3778 24.7277 68.091 25.1513 67.7158 25.444C67.3406 25.7343 66.8863 25.8794 66.3529 25.8794ZM66.3529 25.1006C66.8815 25.1006 67.2922 24.8457 67.5848 24.3359C67.8775 23.8262 68.0238 23.0993 68.0238 22.1553C68.0238 21.5275 67.9565 20.993 67.822 20.5516C67.6898 20.1103 67.4987 19.774 67.2485 19.5427C67.0007 19.3114 66.7022 19.1958 66.3529 19.1958C65.829 19.1958 65.4195 19.4542 65.1245 19.9711C64.8295 20.4856 64.682 21.2136 64.682 22.1553C64.682 22.783 64.7481 23.3164 64.8802 23.7554C65.0124 24.1943 65.2024 24.5283 65.4502 24.7572C65.7003 24.9861 66.0012 25.1006 66.3529 25.1006ZM72.5834 25.8794C72.05 25.8794 71.5957 25.7343 71.2204 25.444C70.8452 25.1513 70.5585 24.7277 70.3602 24.1731C70.162 23.6161 70.0628 22.9435 70.0628 22.1553C70.0628 21.3717 70.162 20.7027 70.3602 20.1481C70.5608 19.5911 70.8487 19.1663 71.224 18.8737C71.6016 18.5787 72.0547 18.4312 72.5834 18.4312C73.112 18.4312 73.5639 18.5787 73.9392 18.8737C74.3168 19.1663 74.6047 19.5911 74.803 20.1481C75.0036 20.7027 75.1039 21.3717 75.1039 22.1553C75.1039 22.9435 75.0047 23.6161 74.8065 24.1731C74.6083 24.7277 74.3215 25.1513 73.9463 25.444C73.571 25.7343 73.1167 25.8794 72.5834 25.8794ZM72.5834 25.1006C73.112 25.1006 73.5226 24.8457 73.8153 24.3359C74.1079 23.8262 74.2543 23.0993 74.2543 22.1553C74.2543 21.5275 74.187 20.993 74.0525 20.5516C73.9203 20.1103 73.7291 19.774 73.479 19.5427C73.2312 19.3114 72.9326 19.1958 72.5834 19.1958C72.0594 19.1958 71.65 19.4542 71.355 19.9711C71.06 20.4856 70.9125 21.2136 70.9125 22.1553C70.9125 22.783 70.9785 23.3164 71.1107 23.7554C71.2429 24.1943 71.4328 24.5283 71.6806 24.7572C71.9308 24.9861 72.2317 25.1006 72.5834 25.1006Z" fill="white"/>
<path d="M148.835 25.8862C148.265 25.8862 147.779 25.7311 147.378 25.4208C146.977 25.108 146.67 24.6551 146.458 24.0623C146.246 23.4669 146.141 22.7479 146.141 21.9053C146.141 21.0677 146.246 20.3525 146.458 19.7596C146.673 19.1643 146.981 18.7102 147.382 18.3973C147.785 18.082 148.27 17.9243 148.835 17.9243C149.4 17.9243 149.883 18.082 150.284 18.3973C150.688 18.7102 150.996 19.1643 151.208 19.7596C151.422 20.3525 151.529 21.0677 151.529 21.9053C151.529 22.7479 151.423 23.4669 151.211 24.0623C150.999 24.6551 150.693 25.108 150.292 25.4208C149.891 25.7311 149.405 25.8862 148.835 25.8862ZM148.835 25.0537C149.4 25.0537 149.839 24.7812 150.152 24.2363C150.465 23.6914 150.621 22.9144 150.621 21.9053C150.621 21.2342 150.549 20.6628 150.405 20.191C150.264 19.7193 150.06 19.3598 149.792 19.1125C149.527 18.8653 149.208 18.7417 148.835 18.7417C148.275 18.7417 147.837 19.0179 147.522 19.5704C147.206 20.1204 147.049 20.8987 147.049 21.9053C147.049 22.5763 147.119 23.1465 147.261 23.6157C147.402 24.085 147.605 24.4419 147.87 24.6866C148.137 24.9314 148.459 25.0537 148.835 25.0537ZM155.495 25.8862C154.925 25.8862 154.439 25.7311 154.038 25.4208C153.637 25.108 153.33 24.6551 153.119 24.0623C152.907 23.4669 152.801 22.7479 152.801 21.9053C152.801 21.0677 152.907 20.3525 153.119 19.7596C153.333 19.1643 153.641 18.7102 154.042 18.3973C154.446 18.082 154.93 17.9243 155.495 17.9243C156.06 17.9243 156.543 18.082 156.944 18.3973C157.348 18.7102 157.656 19.1643 157.868 19.7596C158.082 20.3525 158.189 21.0677 158.189 21.9053C158.189 22.7479 158.083 23.4669 157.871 24.0623C157.66 24.6551 157.353 25.108 156.952 25.4208C156.551 25.7311 156.065 25.8862 155.495 25.8862ZM155.495 25.0537C156.06 25.0537 156.499 24.7812 156.812 24.2363C157.125 23.6914 157.281 22.9144 157.281 21.9053C157.281 21.2342 157.209 20.6628 157.065 20.191C156.924 19.7193 156.72 19.3598 156.452 19.1125C156.188 18.8653 155.868 18.7417 155.495 18.7417C154.935 18.7417 154.497 19.0179 154.182 19.5704C153.867 20.1204 153.709 20.8987 153.709 21.9053C153.709 22.5763 153.78 23.1465 153.921 23.6157C154.062 24.085 154.265 24.4419 154.53 24.6866C154.797 24.9314 155.119 25.0537 155.495 25.0537ZM160.293 24.7888C160.107 24.7888 159.946 24.722 159.813 24.5883C159.679 24.4545 159.612 24.2944 159.612 24.1077C159.612 23.921 159.679 23.7608 159.813 23.6271C159.946 23.4934 160.107 23.4265 160.293 23.4265C160.48 23.4265 160.64 23.4934 160.774 23.6271C160.908 23.7608 160.974 23.921 160.974 24.1077C160.974 24.2313 160.943 24.3448 160.88 24.4482C160.819 24.5517 160.737 24.6349 160.634 24.698C160.533 24.7585 160.419 24.7888 160.293 24.7888ZM160.293 20.8684C160.107 20.8684 159.946 20.8016 159.813 20.6678C159.679 20.5341 159.612 20.3739 159.612 20.1873C159.612 20.0006 159.679 19.8404 159.813 19.7067C159.946 19.573 160.107 19.5061 160.293 19.5061C160.48 19.5061 160.64 19.573 160.774 19.7067C160.908 19.8404 160.974 20.0006 160.974 20.1873C160.974 20.3109 160.943 20.4244 160.88 20.5278C160.819 20.6313 160.737 20.7145 160.634 20.7776C160.533 20.8381 160.419 20.8684 160.293 20.8684ZM165.287 18.0303V25.7803H164.348V19.0142H164.303L162.411 20.2705V19.3169L164.348 18.0303H165.287ZM167.515 25.7803V25.0991L170.074 22.2988C170.374 21.9709 170.621 21.6858 170.815 21.4436C171.01 21.1989 171.153 20.9693 171.247 20.7549C171.343 20.5379 171.39 20.3109 171.39 20.0737C171.39 19.8013 171.325 19.5654 171.194 19.3661C171.065 19.1668 170.888 19.0129 170.664 18.9044C170.439 18.7959 170.187 18.7417 169.907 18.7417C169.609 18.7417 169.35 18.8035 169.128 18.9271C168.908 19.0482 168.738 19.2185 168.617 19.438C168.498 19.6575 168.439 19.9148 168.439 20.21H167.546C167.546 19.7559 167.65 19.3573 167.86 19.0142C168.069 18.6711 168.354 18.4036 168.715 18.2119C169.078 18.0202 169.486 17.9243 169.937 17.9243C170.391 17.9243 170.794 18.0202 171.144 18.2119C171.495 18.4036 171.77 18.6622 171.969 18.9877C172.169 19.3131 172.268 19.6751 172.268 20.0737C172.268 20.3588 172.217 20.6376 172.113 20.91C172.012 21.18 171.836 21.4814 171.583 21.8145C171.334 22.1449 170.987 22.5486 170.543 23.0254L168.802 24.8872V24.9478H172.405V25.7803H167.515Z" fill="white"/>
<g clip-path="url(#clip0_1_494)">
<g clip-path="url(#clip1_1_494)">
<path d="M32.5 19.2799C32.8 19.3798 32.9 19.7799 32.7 20.0799C32.6 20.1799 32.6 20.2799 32.5 20.2799L21.1 27.2799C20.6 27.5799 20.3 27.3799 20.3 26.7799V12.7799C20.3 12.2799 20.7 11.9799 21.1 12.2799L32.5 19.2799Z" fill="white"/>
</g>
</g>
<rect width="37.94" height="10" transform="translate(91.53 15.7803)" fill="white" fill-opacity="0.33"/>
<g clip-path="url(#clip2_1_494)">
<g clip-path="url(#clip3_1_494)">
<path d="M192 16.5802C191.5 16.9802 190.8 17.1802 190.2 17.1802H187C186.4 17.1802 186 17.5802 186 18.1802V23.8802C186 24.4802 186.4 24.8802 187 24.8802H191.2C191.5 25.0802 191.7 25.2802 192 25.4802L195.5 28.0802C195.9 28.3802 196.3 28.1802 196.3 27.6802V14.2802C196.3 13.7802 195.9 13.5802 195.5 13.8802L192 16.5802Z" fill="white"/>
<path d="M198.9 13.2798C198.9 13.2798 202.8 12.4798 202.8 20.9798C202.8 29.4798 198.9 28.7798 198.9 28.7798" stroke="white" stroke-width="1.5" stroke-linecap="round"/>
<path d="M197.6 17.1802C197.6 17.1802 200.2 16.7802 200.2 20.9802C200.2 25.1802 197.6 24.8802 197.6 24.8802" stroke="white" stroke-width="1.5" stroke-linecap="round"/>
</g>
</g>
<g clip-path="url(#clip4_1_494)">
<g clip-path="url(#clip5_1_494)">
<path d="M218 12.1807C218 11.5807 218.4 11.1807 219 11.1807H224.4C225 11.1807 225.1 11.4807 224.7 11.8807L218.7 17.8807C218.3 18.2807 218 18.1807 218 17.5807V12.1807ZM218 27.9807C218 28.5807 218.4 28.9807 219 28.9807H224.4C225 28.9807 225.1 28.6807 224.7 28.2807L218.7 22.2807C218.3 21.8807 218 21.9807 218 22.5807V27.9807ZM235.8 12.1807C235.8 11.5807 235.4 11.1807 234.8 11.1807H229.4C228.8 11.1807 228.7 11.4807 229.1 11.8807L235.1 17.8807C235.5 18.2807 235.8 18.1807 235.8 17.5807V12.1807ZM235.8 27.9807C235.8 28.5807 235.4 28.9807 234.8 28.9807H229.4C228.8 28.9807 228.7 28.6807 229.1 28.2807L235.1 22.2807C235.5 21.8807 235.8 21.9807 235.8 22.5807V27.9807Z" fill="white"/>
</g>
</g>
<defs>
<clipPath id="clip0_1_494">
<rect width="20" height="20" fill="white" transform="translate(16 10.7803)"/>
</clipPath>
<clipPath id="clip1_1_494">
<rect width="20" height="20" fill="white" transform="translate(16 10.7803)"/>
</clipPath>
<clipPath id="clip2_1_494">
<rect width="20" height="20" fill="white" transform="translate(185 10.7803)"/>
</clipPath>
<clipPath id="clip3_1_494">
<rect width="20" height="20" fill="white" transform="translate(185 10.7803)"/>
</clipPath>
<clipPath id="clip4_1_494">
<rect width="20" height="20" fill="white" transform="translate(217 10.7803)"/>
</clipPath>
<clipPath id="clip5_1_494">
<rect width="20" height="20" fill="white" transform="translate(217 10.7803)"/>
</clipPath>
</defs>
</svg>
