<svg width="34" height="34" viewBox="0 0 34 34" fill="none" xmlns="http://www.w3.org/2000/svg">
<g clip-path="url(#clip0_1_1226)">
<path d="M33.98 16.91C33.98 7.79731 26.5927 0.410004 17.48 0.410004C8.36728 0.410004 0.97998 7.79731 0.97998 16.91C0.97998 26.0227 8.36728 33.41 17.48 33.41C26.5927 33.41 33.98 26.0227 33.98 16.91Z" fill="#0DC143"/>
<path d="M24.8718 9.49291C23.1029 7.67196 20.6576 6.68344 18.1603 6.68344C12.8536 6.68344 8.58733 11.0017 8.63936 16.2564C8.63936 17.9213 9.1076 19.5341 9.88801 20.9909L8.53531 25.9335L13.5819 24.6327C14.9866 25.4132 16.5474 25.7774 18.1083 25.7774C23.363 25.7774 27.6292 21.4591 27.6292 16.2044C27.6292 13.6551 26.6407 11.2618 24.8718 9.49291ZM18.1603 24.1645C16.7556 24.1645 15.3508 23.8003 14.1542 23.0719L13.8421 22.9159L10.8245 23.6963L11.6049 20.7308L11.3968 20.4185C9.1076 16.7247 10.2002 11.8341 13.9461 9.54493C17.6921 7.25573 22.5306 8.34831 24.8198 12.0943C27.109 15.8402 26.0164 20.6787 22.2705 22.9679C21.0739 23.7483 19.6171 24.1645 18.1603 24.1645ZM22.7387 18.3895L22.1664 18.1294C22.1664 18.1294 21.334 17.7652 20.8137 17.5051C20.7616 17.5051 20.7097 17.453 20.6576 17.453C20.5015 17.453 20.3974 17.5051 20.2934 17.5571C20.2934 17.5571 20.2414 17.6091 19.513 18.4416C19.461 18.5456 19.3569 18.5976 19.2529 18.5976H19.2008C19.1489 18.5976 19.0448 18.5456 18.9927 18.4935L18.7326 18.3895C18.1603 18.1294 17.64 17.8172 17.2239 17.401C17.1198 17.2969 16.9637 17.1929 16.8597 17.0888C16.4955 16.7247 16.1313 16.3085 15.8711 15.8402L15.8191 15.7361C15.7671 15.6841 15.7671 15.6321 15.715 15.528C15.715 15.424 15.715 15.32 15.7671 15.2679C15.7671 15.2679 15.9752 15.0077 16.1313 14.8517C16.2353 14.7476 16.2873 14.5916 16.3914 14.4875C16.4955 14.3314 16.5474 14.1233 16.4955 13.9672C16.4434 13.7071 15.8191 12.3024 15.663 11.9902C15.559 11.8341 15.4549 11.7821 15.2989 11.7301H15.1427C15.0387 11.7301 14.8826 11.7301 14.7265 11.7301C14.6224 11.7301 14.5184 11.7821 14.4144 11.7821L14.3623 11.8341C14.2583 11.8861 14.1542 11.9902 14.0502 12.0422C13.9461 12.1463 13.8941 12.2503 13.79 12.3544C13.4258 12.8226 13.2177 13.395 13.2177 13.9672C13.2177 14.3835 13.3218 14.7997 13.4779 15.1638L13.5299 15.32C13.9981 16.3085 14.6224 17.1929 15.4549 17.9733L15.663 18.1814C15.8191 18.3375 15.9752 18.4416 16.0792 18.5976C17.1718 19.5341 18.4205 20.2105 19.8252 20.5747C19.9813 20.6267 20.1894 20.6267 20.3455 20.6787C20.5015 20.6787 20.7097 20.6787 20.8657 20.6787C21.1258 20.6787 21.438 20.5747 21.6461 20.4706C21.8022 20.3666 21.9063 20.3666 22.0103 20.2625L22.1144 20.1585C22.2184 20.0544 22.3224 20.0024 22.4265 19.8983C22.5306 19.7943 22.6347 19.6902 22.6866 19.5861C22.7907 19.378 22.8427 19.1179 22.8948 18.8577C22.8948 18.7537 22.8948 18.5976 22.8948 18.4935C22.8948 18.4935 22.8427 18.4416 22.7387 18.3895Z" fill="white"/>
</g>
<defs>
<clipPath id="clip0_1_1226">
<rect width="33" height="33" fill="white" transform="translate(0.97998 0.410004)"/>
</clipPath>
</defs>
</svg>
