<svg width="162" height="163" viewBox="0 0 162 163" fill="none" xmlns="http://www.w3.org/2000/svg">
<g clip-path="url(#clip0_1_158)">
<path d="M155.857 83.7337C155.876 99.1506 151.322 114.227 142.771 127.055C134.219 139.883 122.055 149.886 107.817 155.799C93.5796 161.712 77.9077 163.269 62.7847 160.273C47.6617 157.277 33.7672 149.863 22.859 138.968C11.9508 128.074 4.51923 114.188 1.5045 99.069C-1.51024 83.9497 0.0273557 68.2759 5.92272 54.0307C11.8181 39.7855 21.8063 27.6091 34.6237 19.0419C47.441 10.4747 62.5115 5.90188 77.9284 5.90186V83.6127L155.857 83.7337Z" fill="url(#paint0_linear_1_158)"/>
<path d="M140.196 93.854C145.774 59.4909 122.439 27.1123 88.0756 21.5343C53.7125 15.9564 21.3339 39.2914 15.756 73.6546C10.178 108.018 33.5131 140.396 67.8762 145.974C102.239 151.552 134.618 128.217 140.196 93.854Z" fill="white"/>
<path style="mix-blend-mode:multiply" d="M86.1199 135.016C111.639 135.016 132.326 114.329 132.326 88.8098C132.326 63.291 111.639 42.604 86.1199 42.604C60.6011 42.604 39.9141 63.291 39.9141 88.8098C39.9141 114.329 60.6011 135.016 86.1199 135.016Z" fill="url(#paint1_radial_1_158)"/>
<path d="M126.303 0.19615C119.054 0.899294 112.253 4.01846 106.991 9.05256C101.728 14.0866 98.3112 20.7434 97.2879 27.9534C97.2879 28.0743 97.2879 28.2194 97.2879 28.3403C96.9034 31.8217 95.1682 35.0133 92.4554 37.2288C89.7425 39.4443 86.2686 40.5068 82.7806 40.188C80.0549 39.9212 77.3097 39.9212 74.584 40.188C65.8669 40.8441 57.5447 44.0901 50.6855 49.5094C43.8263 54.9287 38.7429 62.274 36.0877 70.6028C33.4326 78.9315 33.3268 87.8637 35.7839 96.253C38.241 104.642 43.1489 112.106 49.8779 117.686C56.6068 123.267 64.8497 126.709 73.5488 127.571C82.2479 128.434 91.0062 126.677 98.6999 122.527C106.394 118.376 112.672 112.022 116.728 104.278C120.785 96.5346 122.435 87.7555 121.467 79.0676C121.148 75.5795 122.21 72.1057 124.426 69.3928C126.641 66.6799 129.833 64.9447 133.314 64.5602H133.701C142.1 63.4395 149.723 59.0661 154.93 52.3813C160.136 45.6964 162.51 37.2347 161.54 28.8172C160.57 20.3997 156.334 12.6994 149.744 7.37374C143.154 2.04804 134.736 -0.477306 126.303 0.341226V0.19615Z" fill="url(#paint2_linear_1_158)"/>
<path d="M65.557 106.358C63.5084 106.358 61.6875 105.827 60.0942 104.765C58.5008 103.677 57.2489 102.134 56.3384 100.136C55.4279 98.1132 54.9727 95.6852 54.9727 92.8526C54.9727 90.02 55.4279 87.6047 56.3384 85.6067C57.2489 83.5834 58.5008 82.0407 60.0942 80.9784C61.6875 79.8909 63.5084 79.3472 65.557 79.3472C67.6056 79.3472 69.4266 79.8909 71.0199 80.9784C72.6132 82.0407 73.8652 83.5834 74.7756 85.6067C75.7114 87.6047 76.1793 90.02 76.1793 92.8526C76.1793 95.6852 75.7114 98.1132 74.7756 100.136C73.8652 102.134 72.6132 103.677 71.0199 104.765C69.4266 105.827 67.6056 106.358 65.557 106.358ZM65.557 103.854C67.1251 103.854 68.4908 103.437 69.6542 102.602C70.8176 101.742 71.7281 100.503 72.3856 98.8845C73.0432 97.2406 73.372 95.23 73.372 92.8526C73.372 90.4752 73.0432 88.4772 72.3856 86.8586C71.7281 85.2147 70.8176 83.9754 69.6542 83.1408C68.4908 82.2809 67.1251 81.851 65.557 81.851C64.0396 81.851 62.6865 82.2809 61.4978 83.1408C60.3091 83.9754 59.386 85.2147 58.7284 86.8586C58.0709 88.4772 57.7421 90.4752 57.7421 92.8526C57.7421 95.23 58.0709 97.2406 58.7284 98.8845C59.386 100.503 60.3091 101.742 61.4978 102.602C62.6865 103.437 64.0396 103.854 65.557 103.854ZM88.4749 106.358C86.5781 106.358 84.7698 106.055 83.05 105.448C81.3302 104.815 79.9645 103.981 78.9528 102.944L80.2806 100.781C81.1152 101.667 82.2533 102.4 83.6949 102.982C85.1618 103.563 86.7425 103.854 88.437 103.854C90.6879 103.854 92.395 103.361 93.5584 102.375C94.7471 101.363 95.3414 100.048 95.3414 98.4293C95.3414 97.2912 95.0632 96.3175 94.5068 95.5082C93.9757 94.6736 93.0652 94.0286 91.7754 93.5734C90.4855 93.1182 88.7152 92.8905 86.4643 92.8905H80.8117L82.1774 79.5748H96.7072V82.0027H83.2776L84.6812 80.6749L83.5052 91.8283L82.1016 90.4626H87.0713C89.7521 90.4626 91.9018 90.7914 93.5205 91.4489C95.1391 92.1065 96.3025 93.0296 97.0107 94.2183C97.7441 95.3817 98.1108 96.7474 98.1108 98.3155C98.1108 99.8077 97.7567 101.173 97.0486 102.413C96.3404 103.627 95.2782 104.588 93.8619 105.296C92.4456 106.004 90.6499 106.358 88.4749 106.358Z" fill="white"/>
<path d="M64.9383 69.9212L64.6001 70.297V57.9727H65.9716V70.297L65.5959 69.9212H72.3404L71.9646 70.297V57.9727H73.3361V71.1236H57.2169V57.9727H58.5883V70.297L58.2314 69.9212H64.9383ZM75.8301 71.1236L81.8419 57.9727H83.2133L89.2252 71.1236H87.7598L82.2364 58.7805H82.8L77.2767 71.1236H75.8301ZM78.1972 67.6104L78.6105 66.4832H86.2568L86.6701 67.6104H78.1972ZM91.7453 71.1236V57.9727H100.105V59.1751H92.741L93.0979 58.8181L93.1167 71.1236H91.7453Z" fill="white"/>
<path d="M128.656 55.5011C141.168 55.5011 151.311 45.3578 151.311 32.8455C151.311 20.3332 141.168 10.1899 128.656 10.1899C116.143 10.1899 106 20.3332 106 32.8455C106 45.3578 116.143 55.5011 128.656 55.5011Z" fill="white"/>
<path d="M140.669 42.8569H117.336C116.858 42.8569 116.461 42.4602 116.461 41.9819C116.461 41.5036 116.858 41.1069 117.336 41.1069H140.669C141.148 41.1069 141.544 41.5036 141.544 41.9819C141.544 42.4602 141.148 42.8569 140.669 42.8569Z" fill="#E7B306"/>
<path d="M126.375 21.8562V42.8563H131.625V21.8562C131.625 20.5729 131.1 19.5229 129.525 19.5229H128.475C126.9 19.5229 126.375 20.5729 126.375 21.8562Z" fill="#E7B306"/>
<path d="M118.5 28.8562V42.8563H123.167V28.8562C123.167 27.5729 122.7 26.5229 121.3 26.5229H120.367C118.967 26.5229 118.5 27.5729 118.5 28.8562Z" fill="#E7B306"/>
<path d="M134.836 34.6902V42.8569H139.503V34.6902C139.503 33.4069 139.036 32.3569 137.636 32.3569H136.703C135.303 32.3569 134.836 33.4069 134.836 34.6902Z" fill="#E7B306"/>
</g>
<defs>
<linearGradient id="paint0_linear_1_158" x1="0.0241554" y1="83.7336" x2="155.857" y2="83.7336" gradientUnits="userSpaceOnUse">
<stop stop-color="#FCD50C"/>
<stop offset="1" stop-color="#E7B206"/>
</linearGradient>
<radialGradient id="paint1_radial_1_158" cx="0" cy="0" r="1" gradientUnits="userSpaceOnUse" gradientTransform="translate(86.1199 88.8098) scale(46.2058)">
<stop/>
<stop offset="1" stop-color="white"/>
</radialGradient>
<linearGradient id="paint2_linear_1_158" x1="67.5237" y1="30.1054" x2="146.54" y2="109.122" gradientUnits="userSpaceOnUse">
<stop stop-color="#FCD50C"/>
<stop offset="1" stop-color="#E1A805"/>
</linearGradient>
<clipPath id="clip0_1_158">
<rect width="162" height="162" fill="white" transform="translate(0 0.189941)"/>
</clipPath>
</defs>
</svg>
