<svg width="162" height="163" viewBox="0 0 162 163" fill="none" xmlns="http://www.w3.org/2000/svg">
<g clip-path="url(#clip0_1_178)">
<path d="M155.857 83.7337C155.876 99.1506 151.322 114.227 142.771 127.055C134.219 139.883 122.055 149.886 107.817 155.799C93.5796 161.712 77.9077 163.269 62.7847 160.273C47.6617 157.277 33.7672 149.863 22.859 138.968C11.9508 128.074 4.51923 114.188 1.5045 99.069C-1.51024 83.9497 0.0273557 68.2759 5.92272 54.0307C11.8181 39.7855 21.8063 27.6091 34.6237 19.0419C47.441 10.4747 62.5115 5.90188 77.9284 5.90186V83.6127L155.857 83.7337Z" fill="url(#paint0_linear_1_178)"/>
<path d="M140.196 93.854C145.774 59.4909 122.439 27.1123 88.0756 21.5343C53.7125 15.9564 21.3339 39.2914 15.756 73.6546C10.178 108.018 33.5131 140.396 67.8762 145.974C102.239 151.552 134.618 128.217 140.196 93.854Z" fill="white"/>
<path style="mix-blend-mode:multiply" d="M86.1199 135.016C111.639 135.016 132.326 114.329 132.326 88.8098C132.326 63.291 111.639 42.604 86.1199 42.604C60.6011 42.604 39.9141 63.291 39.9141 88.8098C39.9141 114.329 60.6011 135.016 86.1199 135.016Z" fill="url(#paint1_radial_1_178)"/>
<path d="M126.303 0.19615C119.054 0.899294 112.253 4.01846 106.991 9.05256C101.728 14.0866 98.3112 20.7434 97.2879 27.9534C97.2879 28.0743 97.2879 28.2194 97.2879 28.3403C96.9034 31.8217 95.1682 35.0133 92.4554 37.2288C89.7425 39.4443 86.2686 40.5068 82.7806 40.188C80.0549 39.9212 77.3097 39.9212 74.584 40.188C65.8669 40.8441 57.5447 44.0901 50.6855 49.5094C43.8263 54.9287 38.7429 62.274 36.0877 70.6028C33.4326 78.9315 33.3268 87.8637 35.7839 96.253C38.241 104.642 43.1489 112.106 49.8779 117.686C56.6068 123.267 64.8497 126.709 73.5488 127.571C82.2479 128.434 91.0062 126.677 98.6999 122.527C106.394 118.376 112.672 112.022 116.728 104.278C120.785 96.5346 122.435 87.7555 121.467 79.0676C121.148 75.5795 122.21 72.1057 124.426 69.3928C126.641 66.6799 129.833 64.9447 133.314 64.5602H133.701C142.1 63.4395 149.723 59.0661 154.93 52.3813C160.136 45.6964 162.51 37.2347 161.54 28.8172C160.57 20.3997 156.334 12.6994 149.744 7.37374C143.154 2.04804 134.736 -0.477306 126.303 0.341226V0.19615Z" fill="url(#paint2_linear_1_178)"/>
<path d="M66.557 106.358C64.5084 106.358 62.6875 105.827 61.0942 104.765C59.5008 103.677 58.2489 102.134 57.3384 100.136C56.4279 98.1132 55.9727 95.6852 55.9727 92.8526C55.9727 90.02 56.4279 87.6047 57.3384 85.6067C58.2489 83.5834 59.5008 82.0407 61.0942 80.9784C62.6875 79.8909 64.5084 79.3472 66.557 79.3472C68.6056 79.3472 70.4266 79.8909 72.0199 80.9784C73.6132 82.0407 74.8652 83.5834 75.7756 85.6067C76.7114 87.6047 77.1793 90.02 77.1793 92.8526C77.1793 95.6852 76.7114 98.1132 75.7756 100.136C74.8652 102.134 73.6132 103.677 72.0199 104.765C70.4266 105.827 68.6056 106.358 66.557 106.358ZM66.557 103.854C68.1251 103.854 69.4908 103.437 70.6542 102.602C71.8176 101.742 72.7281 100.503 73.3856 98.8845C74.0432 97.2406 74.372 95.23 74.372 92.8526C74.372 90.4752 74.0432 88.4772 73.3856 86.8586C72.7281 85.2147 71.8176 83.9754 70.6542 83.1408C69.4908 82.2809 68.1251 81.851 66.557 81.851C65.0396 81.851 63.6865 82.2809 62.4978 83.1408C61.3091 83.9754 60.386 85.2147 59.7284 86.8586C59.0709 88.4772 58.7421 90.4752 58.7421 92.8526C58.7421 95.23 59.0709 97.2406 59.7284 98.8845C60.386 100.503 61.3091 101.742 62.4978 102.602C63.6865 103.437 65.0396 103.854 66.557 103.854ZM88.6492 106.358C86.7271 106.358 84.9061 106.055 83.1863 105.448C81.4918 104.815 80.1261 103.981 79.0892 102.944L80.4169 100.781C81.2768 101.667 82.4276 102.4 83.8692 102.982C85.3361 103.563 86.9294 103.854 88.6492 103.854C90.8495 103.854 92.5314 103.374 93.6948 102.413C94.8834 101.452 95.4778 100.162 95.4778 98.5431C95.4778 96.9245 94.8961 95.6346 93.7327 94.6736C92.5946 93.7125 90.7863 93.232 88.3078 93.232H86.4109V91.2213L94.6052 80.9405L94.9846 82.0027H80.1893V79.5748H97.2608V81.5095L89.0665 91.7904L87.7387 90.9178H88.763C91.9497 90.9178 94.327 91.626 95.8951 93.0423C97.4884 94.4586 98.2851 96.2795 98.2851 98.5052C98.2851 99.9973 97.931 101.338 97.2229 102.526C96.5147 103.715 95.4398 104.651 93.9983 105.334C92.582 106.017 90.7989 106.358 88.6492 106.358Z" fill="white"/>
<path d="M65.9383 69.9212L65.6001 70.297V57.9727H66.9716V70.297L66.5959 69.9212H73.3404L72.9646 70.297V57.9727H74.3361V71.1236H58.2169V57.9727H59.5883V70.297L59.2314 69.9212H65.9383ZM76.8301 71.1236L82.8419 57.9727H84.2133L90.2252 71.1236H88.7598L83.2364 58.7805H83.8L78.2767 71.1236H76.8301ZM79.1972 67.6104L79.6105 66.4832H87.2568L87.6701 67.6104H79.1972ZM92.7453 71.1236V57.9727H101.105V59.1751H93.741L94.0979 58.8181L94.1167 71.1236H92.7453Z" fill="white"/>
<path d="M128.656 55.5011C141.168 55.5011 151.311 45.3578 151.311 32.8455C151.311 20.3332 141.168 10.1899 128.656 10.1899C116.143 10.1899 106 20.3332 106 32.8455C106 45.3578 116.143 55.5011 128.656 55.5011Z" fill="white"/>
<path d="M140.452 23.787C138.924 27.602 135.435 32.5837 132.11 35.8387C131.632 32.8287 129.229 30.472 126.195 30.052C129.462 26.7153 134.479 23.1803 138.305 21.6403C138.982 21.3837 139.659 21.582 140.079 22.002C140.522 22.4453 140.732 23.1103 140.452 23.787Z" fill="#67B172"/>
<path d="M131.077 36.7954C130.844 36.9938 130.611 37.1921 130.377 37.3788L128.289 39.0471C128.289 39.0121 128.277 38.9654 128.277 38.9188C128.114 37.6704 127.531 36.5154 126.586 35.5704C125.629 34.6138 124.439 34.0304 123.132 33.8671C123.097 33.8671 123.051 33.8554 123.016 33.8554L124.707 31.7204C124.871 31.5104 125.046 31.3121 125.232 31.1021L126.026 31.2071C128.534 31.5571 130.552 33.5288 130.949 36.0254L131.077 36.7954Z" fill="#67B172"/>
<path d="M127.167 39.7465C127.167 41.0299 126.677 42.2549 125.743 43.1765C125.032 43.8999 124.075 44.3899 122.908 44.5299L120.05 44.8449C118.487 45.0199 117.145 43.6782 117.32 42.1032L117.635 39.2332C117.915 36.6782 120.05 35.0449 122.313 34.9982C122.535 34.9865 122.78 34.9982 123.013 35.0215C124.005 35.1499 124.962 35.6049 125.767 36.3982C126.548 37.1799 126.992 38.1015 127.12 39.0699C127.143 39.3032 127.167 39.5249 127.167 39.7465Z" fill="#67B172"/>
</g>
<defs>
<linearGradient id="paint0_linear_1_178" x1="0.0241554" y1="83.7336" x2="155.857" y2="83.7336" gradientUnits="userSpaceOnUse">
<stop stop-color="#C6B82A"/>
<stop offset="1" stop-color="#65B173"/>
</linearGradient>
<radialGradient id="paint1_radial_1_178" cx="0" cy="0" r="1" gradientUnits="userSpaceOnUse" gradientTransform="translate(86.1199 88.8098) scale(46.2058)">
<stop/>
<stop offset="1" stop-color="white"/>
</radialGradient>
<linearGradient id="paint2_linear_1_178" x1="67.5237" y1="30.1054" x2="146.54" y2="109.122" gradientUnits="userSpaceOnUse">
<stop stop-color="#D4B920"/>
<stop offset="1" stop-color="#43AF8D"/>
</linearGradient>
<clipPath id="clip0_1_178">
<rect width="162" height="162" fill="white" transform="translate(0 0.189941)"/>
</clipPath>
</defs>
</svg>
