<svg width="162" height="163" viewBox="0 0 162 163" fill="none" xmlns="http://www.w3.org/2000/svg">
<g clip-path="url(#clip0_1_196)">
<path d="M155.857 83.7337C155.876 99.1506 151.322 114.227 142.771 127.055C134.219 139.883 122.055 149.886 107.817 155.799C93.5796 161.712 77.9077 163.269 62.7847 160.273C47.6617 157.277 33.7672 149.863 22.859 138.968C11.9508 128.074 4.51923 114.188 1.5045 99.069C-1.51024 83.9497 0.0273557 68.2759 5.92272 54.0307C11.8181 39.7855 21.8063 27.6091 34.6237 19.0419C47.441 10.4747 62.5115 5.90188 77.9284 5.90186V83.6127L155.857 83.7337Z" fill="url(#paint0_linear_1_196)"/>
<path d="M140.196 93.854C145.774 59.4909 122.439 27.1123 88.0756 21.5343C53.7125 15.9564 21.3339 39.2914 15.756 73.6546C10.178 108.018 33.5131 140.396 67.8762 145.974C102.239 151.552 134.618 128.217 140.196 93.854Z" fill="white"/>
<path style="mix-blend-mode:multiply" d="M86.1199 135.016C111.639 135.016 132.326 114.329 132.326 88.8098C132.326 63.291 111.639 42.604 86.1199 42.604C60.6011 42.604 39.9141 63.291 39.9141 88.8098C39.9141 114.329 60.6011 135.016 86.1199 135.016Z" fill="url(#paint1_radial_1_196)"/>
<path d="M126.303 0.19615C119.054 0.899294 112.253 4.01846 106.991 9.05256C101.728 14.0866 98.3112 20.7434 97.2879 27.9534C97.2879 28.0743 97.2879 28.2194 97.2879 28.3403C96.9034 31.8217 95.1682 35.0133 92.4554 37.2288C89.7425 39.4443 86.2686 40.5068 82.7806 40.188C80.0549 39.9212 77.3097 39.9212 74.584 40.188C65.8669 40.8441 57.5447 44.0901 50.6855 49.5094C43.8263 54.9287 38.7429 62.274 36.0877 70.6028C33.4326 78.9315 33.3268 87.8637 35.7839 96.253C38.241 104.642 43.1489 112.106 49.8779 117.686C56.6068 123.267 64.8497 126.709 73.5488 127.571C82.2479 128.434 91.0062 126.677 98.6999 122.527C106.394 118.376 112.672 112.022 116.728 104.278C120.785 96.5346 122.435 87.7555 121.467 79.0676C121.148 75.5795 122.21 72.1057 124.426 69.3928C126.641 66.6799 129.833 64.9447 133.314 64.5602H133.701C142.1 63.4395 149.723 59.0661 154.93 52.3813C160.136 45.6964 162.51 37.2347 161.54 28.8172C160.57 20.3997 156.334 12.6994 149.744 7.37374C143.154 2.04804 134.736 -0.477306 126.303 0.341226V0.19615Z" fill="url(#paint2_linear_1_196)"/>
<path d="M65.557 106.358C63.5084 106.358 61.6875 105.827 60.0942 104.765C58.5008 103.677 57.2489 102.134 56.3384 100.136C55.4279 98.1132 54.9727 95.6852 54.9727 92.8526C54.9727 90.02 55.4279 87.6047 56.3384 85.6067C57.2489 83.5834 58.5008 82.0407 60.0942 80.9784C61.6875 79.8909 63.5084 79.3472 65.557 79.3472C67.6056 79.3472 69.4266 79.8909 71.0199 80.9784C72.6132 82.0407 73.8652 83.5834 74.7756 85.6067C75.7114 87.6047 76.1793 90.02 76.1793 92.8526C76.1793 95.6852 75.7114 98.1132 74.7756 100.136C73.8652 102.134 72.6132 103.677 71.0199 104.765C69.4266 105.827 67.6056 106.358 65.557 106.358ZM65.557 103.854C67.1251 103.854 68.4908 103.437 69.6542 102.602C70.8176 101.742 71.7281 100.503 72.3856 98.8845C73.0432 97.2406 73.372 95.23 73.372 92.8526C73.372 90.4752 73.0432 88.4772 72.3856 86.8586C71.7281 85.2147 70.8176 83.9754 69.6542 83.1408C68.4908 82.2809 67.1251 81.851 65.557 81.851C64.0396 81.851 62.6865 82.2809 61.4978 83.1408C60.3091 83.9754 59.386 85.2147 58.7284 86.8586C58.0709 88.4772 57.7421 90.4752 57.7421 92.8526C57.7421 95.23 58.0709 97.2406 58.7284 98.8845C59.386 100.503 60.3091 101.742 61.4978 102.602C62.6865 103.437 64.0396 103.854 65.557 103.854ZM90.9787 106.358C88.6267 106.358 86.6413 105.84 85.0227 104.803C83.404 103.74 82.1774 102.223 81.3428 100.25C80.5082 98.2523 80.0909 95.8622 80.0909 93.0802C80.0909 90.0706 80.5967 87.5541 81.6084 85.5308C82.6453 83.4823 84.0743 81.9395 85.8952 80.9026C87.7162 79.8656 89.828 79.3472 92.2306 79.3472C93.4193 79.3472 94.5574 79.461 95.6449 79.6886C96.7324 79.9162 97.6935 80.2829 98.5281 80.7888L97.428 82.9891C96.7451 82.5338 95.9611 82.2177 95.0759 82.0407C94.1907 81.8383 93.2549 81.7372 92.2686 81.7372C89.4107 81.7372 87.1218 82.6477 85.402 84.4686C83.7075 86.2896 82.8603 89.0084 82.8603 92.625C82.8603 93.1814 82.8856 93.8769 82.9362 94.7115C83.012 95.5208 83.1638 96.3301 83.3914 97.1394L82.443 96.4186C82.7212 95.1035 83.2649 93.9907 84.0743 93.0802C84.8836 92.1445 85.8952 91.4363 87.1092 90.9558C88.3232 90.4752 89.6509 90.235 91.0925 90.235C92.8629 90.235 94.4183 90.5638 95.7587 91.2213C97.0992 91.8789 98.1487 92.802 98.9075 93.9907C99.6662 95.1794 100.046 96.583 100.046 98.2017C100.046 99.8456 99.6536 101.287 98.8695 102.526C98.0855 103.74 96.998 104.689 95.607 105.372C94.2413 106.029 92.6985 106.358 90.9787 106.358ZM90.8649 104.044C92.1295 104.044 93.2423 103.816 94.2033 103.361C95.1897 102.881 95.9611 102.21 96.5175 101.35C97.0739 100.465 97.3521 99.4409 97.3521 98.2775C97.3521 96.5325 96.7451 95.1414 95.5311 94.1045C94.3424 93.0676 92.7238 92.5491 90.6752 92.5491C89.3095 92.5491 88.1208 92.802 87.1092 93.3078C86.0975 93.8137 85.3009 94.5092 84.7192 95.3944C84.1375 96.2543 83.8466 97.2406 83.8466 98.3534C83.8466 99.3145 84.1122 100.238 84.6433 101.123C85.1744 101.983 85.9584 102.691 86.9954 103.247C88.0576 103.778 89.3474 104.044 90.8649 104.044Z" fill="white"/>
<path d="M64.9383 69.9212L64.6001 70.297V57.9727H65.9716V70.297L65.5959 69.9212H72.3404L71.9646 70.297V57.9727H73.3361V71.1236H57.2169V57.9727H58.5883V70.297L58.2314 69.9212H64.9383ZM75.8301 71.1236L81.8419 57.9727H83.2133L89.2252 71.1236H87.7598L82.2364 58.7805H82.8L77.2767 71.1236H75.8301ZM78.1972 67.6104L78.6105 66.4832H86.2568L86.6701 67.6104H78.1972ZM91.7453 71.1236V57.9727H100.105V59.1751H92.741L93.0979 58.8181L93.1167 71.1236H91.7453Z" fill="white"/>
<path d="M128.656 55.5011C141.168 55.5011 151.311 45.3578 151.311 32.8455C151.311 20.3332 141.168 10.1899 128.656 10.1899C116.143 10.1899 106 20.3332 106 32.8455C106 45.3578 116.143 55.5011 128.656 55.5011Z" fill="white"/>
<path d="M135.489 21.5229H122.481C119.646 21.5229 117.336 23.8329 117.336 26.6679V34.2512V34.4846C117.336 37.3312 119.646 39.6297 122.481 39.6297H126.961C127.603 39.6297 128.128 40.1546 128.128 40.7962V41.9279C128.128 42.5696 127.603 43.0947 126.961 43.0947H124.138C123.659 43.0947 123.263 43.4913 123.263 43.9697C123.263 44.448 123.648 44.8563 124.138 44.8563H133.879C134.358 44.8563 134.754 44.4597 134.754 43.9813C134.754 43.503 134.358 43.1063 133.879 43.1063H131.056C130.414 43.1063 129.889 42.5812 129.889 41.9396V40.8079C129.889 40.1662 130.414 39.6413 131.056 39.6413H135.501C138.348 39.6413 140.646 37.3313 140.646 34.4963V34.263V26.6796C140.634 23.8329 138.324 21.5229 135.489 21.5229Z" fill="#6A35AC"/>
</g>
<defs>
<linearGradient id="paint0_linear_1_196" x1="0.0241554" y1="83.7336" x2="155.857" y2="83.7336" gradientUnits="userSpaceOnUse">
<stop stop-color="#89A2C2"/>
<stop offset="1" stop-color="#6A35AC"/>
</linearGradient>
<radialGradient id="paint1_radial_1_196" cx="0" cy="0" r="1" gradientUnits="userSpaceOnUse" gradientTransform="translate(86.1199 88.8098) scale(46.2058)">
<stop/>
<stop offset="1" stop-color="white"/>
</radialGradient>
<linearGradient id="paint2_linear_1_196" x1="67.5237" y1="30.1054" x2="146.54" y2="109.122" gradientUnits="userSpaceOnUse">
<stop stop-color="#89A1C2"/>
<stop offset="1" stop-color="#6A35AC"/>
</linearGradient>
<clipPath id="clip0_1_196">
<rect width="162" height="162" fill="white" transform="translate(0 0.189941)"/>
</clipPath>
</defs>
</svg>
