<svg width="162" height="163" viewBox="0 0 162 163" fill="none" xmlns="http://www.w3.org/2000/svg">
<g clip-path="url(#clip0_1_138)">
<path d="M155.857 83.7337C155.876 99.1506 151.322 114.227 142.771 127.055C134.219 139.883 122.055 149.886 107.817 155.799C93.5796 161.712 77.9077 163.269 62.7847 160.273C47.6617 157.277 33.7672 149.863 22.859 138.968C11.9508 128.074 4.51923 114.188 1.5045 99.069C-1.51024 83.9497 0.0273557 68.2759 5.92272 54.0307C11.8181 39.7855 21.8063 27.6091 34.6237 19.0419C47.441 10.4747 62.5115 5.90188 77.9284 5.90186V83.6127L155.857 83.7337Z" fill="url(#paint0_linear_1_138)"/>
<path d="M140.196 93.854C145.774 59.4909 122.439 27.1123 88.0756 21.5343C53.7125 15.9564 21.3339 39.2914 15.756 73.6546C10.178 108.018 33.5131 140.396 67.8762 145.974C102.239 151.552 134.618 128.217 140.196 93.854Z" fill="white"/>
<path style="mix-blend-mode:multiply" d="M86.1199 135.016C111.639 135.016 132.326 114.329 132.326 88.8098C132.326 63.291 111.639 42.604 86.1199 42.604C60.6011 42.604 39.9141 63.291 39.9141 88.8098C39.9141 114.329 60.6011 135.016 86.1199 135.016Z" fill="url(#paint1_radial_1_138)"/>
<path d="M126.303 0.19615C119.054 0.899294 112.253 4.01846 106.991 9.05256C101.728 14.0866 98.3112 20.7434 97.2879 27.9534C97.2879 28.0743 97.2879 28.2194 97.2879 28.3403C96.9034 31.8217 95.1682 35.0133 92.4554 37.2288C89.7425 39.4443 86.2686 40.5068 82.7806 40.188C80.0549 39.9212 77.3097 39.9212 74.584 40.188C65.8669 40.8441 57.5447 44.0901 50.6855 49.5094C43.8263 54.9287 38.7429 62.274 36.0877 70.6028C33.4326 78.9315 33.3268 87.8637 35.7839 96.253C38.241 104.642 43.1489 112.106 49.8779 117.686C56.6068 123.267 64.8497 126.709 73.5488 127.571C82.2479 128.434 91.0062 126.677 98.6999 122.527C106.394 118.376 112.672 112.022 116.728 104.278C120.785 96.5346 122.435 87.7555 121.467 79.0676C121.148 75.5795 122.21 72.1057 124.426 69.3928C126.641 66.6799 129.833 64.9447 133.314 64.5602H133.701C142.1 63.4395 149.723 59.0661 154.93 52.3813C160.136 45.6964 162.51 37.2347 161.54 28.8172C160.57 20.3997 156.334 12.6994 149.744 7.37374C143.154 2.04804 134.736 -0.477306 126.303 0.341226V0.19615Z" fill="url(#paint2_linear_1_138)"/>
<path d="M66.557 106.358C64.5084 106.358 62.6875 105.827 61.0942 104.765C59.5008 103.677 58.2489 102.134 57.3384 100.136C56.4279 98.1132 55.9727 95.6852 55.9727 92.8526C55.9727 90.02 56.4279 87.6047 57.3384 85.6067C58.2489 83.5834 59.5008 82.0407 61.0942 80.9784C62.6875 79.8909 64.5084 79.3472 66.557 79.3472C68.6056 79.3472 70.4266 79.8909 72.0199 80.9784C73.6132 82.0407 74.8652 83.5834 75.7756 85.6067C76.7114 87.6047 77.1793 90.02 77.1793 92.8526C77.1793 95.6852 76.7114 98.1132 75.7756 100.136C74.8652 102.134 73.6132 103.677 72.0199 104.765C70.4266 105.827 68.6056 106.358 66.557 106.358ZM66.557 103.854C68.1251 103.854 69.4908 103.437 70.6542 102.602C71.8176 101.742 72.7281 100.503 73.3856 98.8845C74.0432 97.2406 74.372 95.23 74.372 92.8526C74.372 90.4752 74.0432 88.4772 73.3856 86.8586C72.7281 85.2147 71.8176 83.9754 70.6542 83.1408C69.4908 82.2809 68.1251 81.851 66.557 81.851C65.0396 81.851 63.6865 82.2809 62.4978 83.1408C61.3091 83.9754 60.386 85.2147 59.7284 86.8586C59.0709 88.4772 58.7421 90.4752 58.7421 92.8526C58.7421 95.23 59.0709 97.2406 59.7284 98.8845C60.386 100.503 61.3091 101.742 62.4978 102.602C63.6865 103.437 65.0396 103.854 66.557 103.854ZM80.5977 106.13V104.196L91.6373 93.3837C92.6489 92.3974 93.4077 91.5375 93.9135 90.804C94.4193 90.0453 94.7607 89.3371 94.9378 88.6796C95.1148 88.022 95.2033 87.4024 95.2033 86.8207C95.2033 85.2779 94.6722 84.064 93.61 83.1788C92.5731 82.2936 91.0303 81.851 88.9817 81.851C87.4137 81.851 86.0227 82.0912 84.8087 82.5718C83.62 83.0523 82.5957 83.7984 81.7358 84.81L79.8011 83.1408C80.838 81.9269 82.1658 80.9911 83.7844 80.3335C85.403 79.6759 87.2114 79.3472 89.2093 79.3472C91.005 79.3472 92.5604 79.638 93.8756 80.2197C95.1907 80.7761 96.2023 81.5981 96.9105 82.6856C97.6439 83.7731 98.0107 85.0503 98.0107 86.5172C98.0107 87.3771 97.8842 88.2243 97.6313 89.0589C97.4037 89.8935 96.9737 90.7787 96.3414 91.7145C95.7345 92.625 94.8366 93.6619 93.6479 94.8253L83.5189 104.765L82.7601 103.702H99.2246V106.13H80.5977Z" fill="white"/>
<path d="M65.9383 69.9212L65.6001 70.297V57.9727H66.9716V70.297L66.5959 69.9212H73.3404L72.9646 70.297V57.9727H74.3361V71.1236H58.2169V57.9727H59.5883V70.297L59.2314 69.9212H65.9383ZM76.8301 71.1236L82.8419 57.9727H84.2133L90.2252 71.1236H88.7598L83.2364 58.7805H83.8L78.2767 71.1236H76.8301ZM79.1972 67.6104L79.6105 66.4832H87.2568L87.6701 67.6104H79.1972ZM92.7453 71.1236V57.9727H101.105V59.1751H93.741L94.0979 58.8181L94.1167 71.1236H92.7453Z" fill="white"/>
<path d="M128.656 55.5011C141.168 55.5011 151.311 45.3578 151.311 32.8455C151.311 20.3332 141.168 10.1899 128.656 10.1899C116.143 10.1899 106 20.3332 106 32.8455C106 45.3578 116.143 55.5011 128.656 55.5011Z" fill="white"/>
<path d="M140.667 27.232H126.375V20.4653H133.888C138.135 20.4653 140.667 22.997 140.667 27.232Z" fill="#FF7B48"/>
<path d="M140.667 37.1479C140.608 41.3129 138.088 43.798 133.888 43.798H126.375V37.1479H140.667Z" fill="#FF7B48"/>
<path d="M124.628 20.4653V43.7986H124.114C119.868 43.7986 117.336 41.267 117.336 37.0203V27.2436C117.336 22.997 119.868 20.4653 124.114 20.4653H124.628Z" fill="#FF7B48"/>
<path d="M140.667 28.9819H126.375V35.3986H140.667V28.9819Z" fill="#FF7B48"/>
</g>
<defs>
<linearGradient id="paint0_linear_1_138" x1="0.0241554" y1="83.7336" x2="155.857" y2="83.7336" gradientUnits="userSpaceOnUse">
<stop stop-color="#FFA914"/>
<stop offset="1" stop-color="#FF794A"/>
</linearGradient>
<radialGradient id="paint1_radial_1_138" cx="0" cy="0" r="1" gradientUnits="userSpaceOnUse" gradientTransform="translate(86.1199 88.8098) scale(46.2058)">
<stop/>
<stop offset="1" stop-color="white"/>
</radialGradient>
<linearGradient id="paint2_linear_1_138" x1="67.5237" y1="30.1054" x2="146.54" y2="109.122" gradientUnits="userSpaceOnUse">
<stop stop-color="#FFB00C"/>
<stop offset="1" stop-color="#FF695C"/>
</linearGradient>
<clipPath id="clip0_1_138">
<rect width="162" height="162" fill="white" transform="translate(0 0.189941)"/>
</clipPath>
</defs>
</svg>
