<svg width="162" height="163" viewBox="0 0 162 163" fill="none" xmlns="http://www.w3.org/2000/svg">
<g clip-path="url(#clip0_1_121)">
<path d="M155.857 83.7337C155.876 99.1506 151.322 114.227 142.771 127.055C134.219 139.883 122.055 149.886 107.817 155.799C93.5796 161.712 77.9077 163.269 62.7847 160.273C47.6617 157.277 33.7672 149.863 22.859 138.968C11.9508 128.074 4.51923 114.188 1.5045 99.069C-1.51024 83.9497 0.0273557 68.2759 5.92272 54.0307C11.8181 39.7855 21.8063 27.6091 34.6237 19.0419C47.441 10.4747 62.5115 5.90188 77.9284 5.90186V83.6127L155.857 83.7337Z" fill="url(#paint0_linear_1_121)"/>
<path d="M140.196 93.854C145.774 59.4909 122.439 27.1123 88.0756 21.5343C53.7125 15.9564 21.3339 39.2914 15.756 73.6546C10.178 108.018 33.5131 140.396 67.8762 145.974C102.239 151.552 134.618 128.217 140.196 93.854Z" fill="white"/>
<path style="mix-blend-mode:multiply" d="M86.1199 135.016C111.639 135.016 132.326 114.329 132.326 88.8098C132.326 63.291 111.639 42.604 86.1199 42.604C60.6011 42.604 39.9141 63.291 39.9141 88.8098C39.9141 114.329 60.6011 135.016 86.1199 135.016Z" fill="url(#paint1_radial_1_121)"/>
<path d="M126.303 0.19615C119.054 0.899294 112.253 4.01846 106.991 9.05256C101.728 14.0866 98.3112 20.7434 97.2879 27.9534C97.2879 28.0743 97.2879 28.2194 97.2879 28.3403C96.9034 31.8217 95.1682 35.0133 92.4554 37.2288C89.7425 39.4443 86.2686 40.5068 82.7806 40.188C80.0549 39.9212 77.3097 39.9212 74.584 40.188C65.8669 40.8441 57.5447 44.0901 50.6855 49.5094C43.8263 54.9287 38.7429 62.274 36.0877 70.6028C33.4326 78.9315 33.3268 87.8637 35.7839 96.253C38.241 104.642 43.1489 112.106 49.8779 117.686C56.6068 123.267 64.8497 126.709 73.5488 127.571C82.2479 128.434 91.0062 126.677 98.6999 122.527C106.394 118.376 112.672 112.022 116.728 104.278C120.785 96.5346 122.435 87.7555 121.467 79.0676C121.148 75.5795 122.21 72.1057 124.426 69.3928C126.641 66.6799 129.833 64.9447 133.314 64.5602H133.701C142.1 63.4395 149.723 59.0661 154.93 52.3813C160.136 45.6964 162.51 37.2347 161.54 28.8172C160.57 20.3997 156.334 12.6994 149.744 7.37374C143.154 2.04804 134.736 -0.477306 126.303 0.341226V0.19615Z" fill="url(#paint2_linear_1_121)"/>
<path d="M65.557 106.358C63.5084 106.358 61.6875 105.827 60.0942 104.765C58.5008 103.677 57.2489 102.134 56.3384 100.136C55.4279 98.1132 54.9727 95.6852 54.9727 92.8526C54.9727 90.02 55.4279 87.6047 56.3384 85.6067C57.2489 83.5834 58.5008 82.0407 60.0942 80.9784C61.6875 79.8909 63.5084 79.3472 65.557 79.3472C67.6056 79.3472 69.4266 79.8909 71.0199 80.9784C72.6132 82.0407 73.8652 83.5834 74.7756 85.6067C75.7114 87.6047 76.1793 90.02 76.1793 92.8526C76.1793 95.6852 75.7114 98.1132 74.7756 100.136C73.8652 102.134 72.6132 103.677 71.0199 104.765C69.4266 105.827 67.6056 106.358 65.557 106.358ZM65.557 103.854C67.1251 103.854 68.4908 103.437 69.6542 102.602C70.8176 101.742 71.7281 100.503 72.3856 98.8845C73.0432 97.2406 73.372 95.23 73.372 92.8526C73.372 90.4752 73.0432 88.4772 72.3856 86.8586C71.7281 85.2147 70.8176 83.9754 69.6542 83.1408C68.4908 82.2809 67.1251 81.851 65.557 81.851C64.0396 81.851 62.6865 82.2809 61.4978 83.1408C60.3091 83.9754 59.386 85.2147 58.7284 86.8586C58.0709 88.4772 57.7421 90.4752 57.7421 92.8526C57.7421 95.23 58.0709 97.2406 58.7284 98.8845C59.386 100.503 60.3091 101.742 61.4978 102.602C62.6865 103.437 64.0396 103.854 65.557 103.854ZM79.6357 99.1501V97.1774L93.7102 79.5748H96.7451L82.7844 97.1774L81.3049 96.7221H102.663V99.1501H79.6357ZM94.6206 106.13V99.1501L94.6965 96.7221V90.5764H97.3521V106.13H94.6206Z" fill="white"/>
<path d="M65.9383 69.9212L65.6001 70.297V57.9727H66.9716V70.297L66.5959 69.9212H73.3404L72.9646 70.297V57.9727H74.3361V71.1236H58.2169V57.9727H59.5883V70.297L59.2314 69.9212H65.9383ZM76.8301 71.1236L82.8419 57.9727H84.2133L90.2252 71.1236H88.7598L83.2364 58.7805H83.8L78.2767 71.1236H76.8301ZM79.1972 67.6104L79.6105 66.4832H87.2568L87.6701 67.6104H79.1972ZM92.7453 71.1236V57.9727H101.105V59.1751H93.741L94.0979 58.8181L94.1167 71.1236H92.7453Z" fill="white"/>
<path d="M128.656 55.5011C141.168 55.5011 151.311 45.3578 151.311 32.8455C151.311 20.3332 141.168 10.1899 128.656 10.1899C116.143 10.1899 106 20.3332 106 32.8455C106 45.3578 116.143 55.5011 128.656 55.5011Z" fill="white"/>
<path d="M133.669 21.4878H124.336C119.669 21.4878 117.336 23.8211 117.336 28.4878V34.3211C117.336 40.1544 119.669 41.3211 124.336 41.3211H124.919C125.246 41.3211 125.666 41.5311 125.853 41.7878L127.603 44.1211C128.373 45.1478 129.633 45.1478 130.403 44.1211L132.153 41.7878C132.374 41.4961 132.724 41.3211 133.086 41.3211H133.669C138.336 41.3211 140.669 38.9878 140.669 34.3211V28.4878C140.669 23.8211 138.336 21.4878 133.669 21.4878ZM124.954 33.3878C125.293 33.7261 125.293 34.2861 124.954 34.6244C124.779 34.7994 124.558 34.8811 124.336 34.8811C124.114 34.8811 123.893 34.7994 123.718 34.6244L121.384 32.2911C121.046 31.9528 121.046 31.3928 121.384 31.0544L123.718 28.7211C124.056 28.3828 124.616 28.3828 124.954 28.7211C125.293 29.0594 125.293 29.6194 124.954 29.9578L123.239 31.6728L124.954 33.3878ZM130.974 29.2928L128.641 34.7411C128.501 35.0678 128.174 35.2661 127.836 35.2661C127.719 35.2661 127.603 35.2428 127.486 35.1961C127.043 35.0094 126.833 34.4961 127.031 34.0411L129.364 28.5928C129.551 28.1494 130.064 27.9394 130.519 28.1378C130.963 28.3361 131.161 28.8494 130.974 29.2928ZM136.621 32.2911L134.288 34.6244C134.113 34.7994 133.891 34.8811 133.669 34.8811C133.448 34.8811 133.226 34.7994 133.051 34.6244C132.713 34.2861 132.713 33.7261 133.051 33.3878L134.766 31.6728L133.051 29.9578C132.713 29.6194 132.713 29.0594 133.051 28.7211C133.389 28.3828 133.949 28.3828 134.288 28.7211L136.621 31.0544C136.959 31.3928 136.959 31.9528 136.621 32.2911Z" fill="#2587BE"/>
</g>
<defs>
<linearGradient id="paint0_linear_1_121" x1="0.0241554" y1="83.7336" x2="155.857" y2="83.7336" gradientUnits="userSpaceOnUse">
<stop stop-color="#3DBACE"/>
<stop offset="1" stop-color="#2587BE"/>
</linearGradient>
<radialGradient id="paint1_radial_1_121" cx="0" cy="0" r="1" gradientUnits="userSpaceOnUse" gradientTransform="translate(86.1199 88.8098) scale(46.2058)">
<stop/>
<stop offset="1" stop-color="white"/>
</radialGradient>
<linearGradient id="paint2_linear_1_121" x1="67.5237" y1="30.1054" x2="146.54" y2="109.122" gradientUnits="userSpaceOnUse">
<stop stop-color="#3DBACE"/>
<stop offset="1" stop-color="#2587BE"/>
</linearGradient>
<clipPath id="clip0_1_121">
<rect width="162" height="162" fill="white" transform="translate(0 0.189941)"/>
</clipPath>
</defs>
</svg>
