<svg width="162" height="163" viewBox="0 0 162 163" fill="none" xmlns="http://www.w3.org/2000/svg">
<g clip-path="url(#clip0_1_103)">
<path d="M155.857 83.7337C155.876 99.1506 151.322 114.227 142.771 127.055C134.219 139.883 122.055 149.886 107.817 155.799C93.5796 161.712 77.9077 163.269 62.7847 160.273C47.6617 157.277 33.7672 149.863 22.859 138.968C11.9508 128.074 4.51923 114.188 1.5045 99.069C-1.51024 83.9497 0.0273557 68.2759 5.92272 54.0307C11.8181 39.7855 21.8063 27.6091 34.6237 19.0419C47.441 10.4747 62.5115 5.90188 77.9284 5.90186V83.6127L155.857 83.7337Z" fill="url(#paint0_linear_1_103)"/>
<path d="M140.196 93.854C145.774 59.4909 122.439 27.1123 88.0756 21.5343C53.7125 15.9564 21.3339 39.2914 15.756 73.6546C10.178 108.018 33.5131 140.396 67.8762 145.974C102.239 151.552 134.618 128.217 140.196 93.854Z" fill="white"/>
<path style="mix-blend-mode:multiply" d="M86.1199 135.016C111.639 135.016 132.326 114.329 132.326 88.8098C132.326 63.291 111.639 42.604 86.1199 42.604C60.6011 42.604 39.9141 63.291 39.9141 88.8098C39.9141 114.329 60.6011 135.016 86.1199 135.016Z" fill="url(#paint1_radial_1_103)"/>
<path d="M126.303 0.19615C119.054 0.899294 112.253 4.01846 106.991 9.05256C101.728 14.0866 98.3112 20.7434 97.2879 27.9534C97.2879 28.0743 97.2879 28.2194 97.2879 28.3403C96.9034 31.8217 95.1682 35.0133 92.4554 37.2288C89.7425 39.4443 86.2686 40.5068 82.7806 40.188C80.0549 39.9212 77.3097 39.9212 74.584 40.188C65.8669 40.8441 57.5447 44.0901 50.6855 49.5094C43.8263 54.9287 38.7429 62.274 36.0877 70.6028C33.4326 78.9315 33.3268 87.8637 35.7839 96.253C38.241 104.642 43.1489 112.106 49.8779 117.686C56.6068 123.267 64.8497 126.709 73.5488 127.571C82.2479 128.434 91.0062 126.677 98.6999 122.527C106.394 118.376 112.672 112.022 116.728 104.278C120.785 96.5346 122.435 87.7555 121.467 79.0676C121.148 75.5795 122.21 72.1057 124.426 69.3928C126.641 66.6799 129.833 64.9447 133.314 64.5602H133.701C142.1 63.4395 149.723 59.0661 154.93 52.3813C160.136 45.6964 162.51 37.2347 161.54 28.8172C160.57 20.3997 156.334 12.6994 149.744 7.37374C143.154 2.04804 134.736 -0.477306 126.303 0.341226V0.19615Z" fill="url(#paint2_linear_1_103)"/>
<path d="M70.557 106.358C68.5084 106.358 66.6875 105.827 65.0942 104.765C63.5008 103.677 62.2489 102.134 61.3384 100.136C60.4279 98.1132 59.9727 95.6852 59.9727 92.8526C59.9727 90.02 60.4279 87.6047 61.3384 85.6067C62.2489 83.5834 63.5008 82.0407 65.0942 80.9784C66.6875 79.8909 68.5084 79.3472 70.557 79.3472C72.6056 79.3472 74.4266 79.8909 76.0199 80.9784C77.6132 82.0407 78.8652 83.5834 79.7756 85.6067C80.7114 87.6047 81.1793 90.02 81.1793 92.8526C81.1793 95.6852 80.7114 98.1132 79.7756 100.136C78.8652 102.134 77.6132 103.677 76.0199 104.765C74.4266 105.827 72.6056 106.358 70.557 106.358ZM70.557 103.854C72.1251 103.854 73.4908 103.437 74.6542 102.602C75.8176 101.742 76.7281 100.503 77.3856 98.8845C78.0432 97.2406 78.372 95.23 78.372 92.8526C78.372 90.4752 78.0432 88.4772 77.3856 86.8586C76.7281 85.2147 75.8176 83.9754 74.6542 83.1408C73.4908 82.2809 72.1251 81.851 70.557 81.851C69.0396 81.851 67.6865 82.2809 66.4978 83.1408C65.3091 83.9754 64.386 85.2147 63.7284 86.8586C63.0709 88.4772 62.7421 90.4752 62.7421 92.8526C62.7421 95.23 63.0709 97.2406 63.7284 98.8845C64.386 100.503 65.3091 101.742 66.4978 102.602C67.6865 103.437 69.0396 103.854 70.557 103.854ZM89.7192 106.13V80.7129L90.9332 82.0027H83.4596V79.5748H92.4506V106.13H89.7192Z" fill="white"/>
<path d="M64.9383 69.9212L64.6001 70.297V57.9727H65.9716V70.297L65.5959 69.9212H72.3404L71.9646 70.297V57.9727H73.3361V71.1236H57.2169V57.9727H58.5883V70.297L58.2314 69.9212H64.9383ZM75.8301 71.1236L81.8419 57.9727H83.2133L89.2252 71.1236H87.7598L82.2364 58.7805H82.8L77.2767 71.1236H75.8301ZM78.1972 67.6104L78.6105 66.4832H86.2568L86.6701 67.6104H78.1972ZM91.7453 71.1236V57.9727H100.105V59.1751H92.741L93.0979 58.8181L93.1167 71.1236H91.7453Z" fill="white"/>
<path d="M128.656 55.5011C141.168 55.5011 151.311 45.3578 151.311 32.8455C151.311 20.3332 141.168 10.1899 128.656 10.1899C116.143 10.1899 106 20.3332 106 32.8455C106 45.3578 116.143 55.5011 128.656 55.5011Z" fill="white"/>
<path d="M129.794 42.4731C130.114 42.5477 130.144 42.9675 129.832 43.0716L127.988 43.6782C123.357 45.1716 120.918 43.9232 119.413 39.2916L117.92 34.6832C116.427 30.0516 117.663 27.6016 122.295 26.1082L123.076 25.8497C123.479 25.7163 123.868 26.1194 123.749 26.5268C123.665 26.8147 123.586 27.1185 123.508 27.4382L122.365 32.3266C121.082 37.8216 122.96 40.8549 128.455 42.1616L129.794 42.4731Z" fill="#FF1662"/>
<path d="M135.034 22.9346L133.086 22.4796C129.189 21.5579 126.868 22.3163 125.503 25.1396C125.153 25.8513 124.873 26.7146 124.639 27.7063L123.496 32.5946C122.353 37.4713 123.858 39.8746 128.723 41.0296L130.683 41.4963C131.359 41.6596 131.989 41.7646 132.573 41.8113C136.213 42.1613 138.149 40.4579 139.129 36.2463L140.273 31.3696C141.416 26.4929 139.923 24.0779 135.034 22.9346ZM132.841 34.7413C132.736 35.1379 132.386 35.3946 131.989 35.3946C131.919 35.3946 131.849 35.3829 131.768 35.3713L128.373 34.5079C127.906 34.3913 127.626 33.9129 127.743 33.4463C127.859 32.9796 128.338 32.6996 128.804 32.8163L132.199 33.6796C132.678 33.7963 132.958 34.2746 132.841 34.7413ZM136.259 30.7979C136.154 31.1946 135.804 31.4513 135.408 31.4513C135.338 31.4513 135.268 31.4396 135.186 31.4279L129.528 29.9929C129.061 29.8763 128.781 29.3979 128.898 28.9313C129.014 28.4646 129.493 28.1846 129.959 28.3013L135.618 29.7363C136.096 29.8413 136.376 30.3196 136.259 30.7979Z" fill="#FF1662"/>
</g>
<defs>
<linearGradient id="paint0_linear_1_103" x1="0.0241554" y1="83.7336" x2="155.857" y2="83.7336" gradientUnits="userSpaceOnUse">
<stop stop-color="#FF5C91"/>
<stop offset="1" stop-color="#FF1360"/>
</linearGradient>
<radialGradient id="paint1_radial_1_103" cx="0" cy="0" r="1" gradientUnits="userSpaceOnUse" gradientTransform="translate(86.1199 88.8098) scale(46.2058)">
<stop/>
<stop offset="1" stop-color="white"/>
</radialGradient>
<linearGradient id="paint2_linear_1_103" x1="67.5237" y1="30.1054" x2="146.54" y2="109.122" gradientUnits="userSpaceOnUse">
<stop stop-color="#FF5C91"/>
<stop offset="1" stop-color="#FF1360"/>
</linearGradient>
<clipPath id="clip0_1_103">
<rect width="162" height="162" fill="white" transform="translate(0 0.189941)"/>
</clipPath>
</defs>
</svg>
