<svg width="175" height="50" viewBox="0 0 175 50" fill="none" xmlns="http://www.w3.org/2000/svg">
<g clip-path="url(#clip0_1_1167)">
<path d="M61.5575 11.2299H58.7446V21.6376H56.3068V11.2299H53.4938V9.12959H61.5575V11.2299Z" fill="black"/>
<path d="M70.8836 21.6376L69.7771 19.0122H64.7327L63.6262 21.6376H60.9821L66.3641 9.12959H68.2769L73.5089 21.6376H70.8836ZM65.5016 17.0245H69.0645L67.2831 12.5238L65.5016 17.0245Z" fill="black"/>
<path d="M74.9693 9.12959H78.5886C79.9638 9.12959 81.0264 9.44214 81.7765 10.0672C82.6016 10.7673 83.0142 11.705 83.0142 12.8801C83.0142 14.1804 82.5267 15.1617 81.5515 15.8243C81.1764 16.0869 80.7201 16.2681 80.1826 16.3681L84.0831 21.6376H81.0452L77.7072 16.6119H77.4071V21.6376H74.9693V9.12959ZM77.4071 11.1174V14.8867H78.1009C78.3011 14.8867 78.4948 14.8741 78.6823 14.8491C78.8823 14.8117 79.1387 14.7428 79.4512 14.6428C79.7638 14.5303 80.0137 14.3366 80.2013 14.0616C80.4013 13.7739 80.5014 13.4177 80.5014 12.9927C80.5014 12.5676 80.4076 12.2175 80.22 11.9425C80.0325 11.6549 79.7825 11.4612 79.47 11.3612C79.1573 11.2486 78.9074 11.1799 78.7199 11.1549C78.5323 11.1299 78.3385 11.1174 78.1385 11.1174H77.4071Z" fill="black"/>
<path d="M92.0758 17.0432V14.9429H97.8141V15.0929C97.8141 17.3308 97.2016 19.056 95.9763 20.2686C94.8763 21.3688 93.3948 21.9189 91.532 21.9189C89.6317 21.9189 88.119 21.3563 86.9938 20.2312C85.7562 18.9935 85.1373 17.387 85.1373 15.4117C85.1373 13.5365 85.7499 11.9862 86.9751 10.7611C88.2252 9.48589 89.8693 8.8483 91.9071 8.8483C93.0072 8.8483 93.9698 9.06707 94.7949 9.50464C95.7575 9.99221 96.539 10.7548 97.139 11.7924L95.0199 12.9363C94.6824 12.2863 94.1949 11.7924 93.5573 11.4549C93.0322 11.1924 92.4446 11.0611 91.7946 11.0611C90.6194 11.0611 89.6567 11.4299 88.9066 12.1676C88.069 12.9801 87.6502 14.0803 87.6502 15.4679C87.6502 16.7807 88.0628 17.8371 88.8878 18.6372C89.6254 19.3498 90.5505 19.7061 91.6633 19.7061C92.6384 19.7061 93.4573 19.4561 94.1199 18.956C94.7199 18.4934 95.1137 17.8558 95.3013 17.0432H92.0758Z" fill="black"/>
<path d="M106.997 9.12959V11.2299H102.496V14.024H106.809V16.1243H102.496V19.5373H106.997V21.6376H100.058V9.12959H106.997Z" fill="black"/>
<path d="M116.515 11.2299H113.702V21.6376H111.264V11.2299H108.452V9.12959H116.515V11.2299Z" fill="black"/>
<path d="M124.848 16.3869V15.6368H130.099C130.099 17.287 129.675 18.6559 128.824 19.7436C127.724 21.1438 126.155 21.8439 124.117 21.8439C122.267 21.8439 120.723 21.2375 119.485 20.0248C118.26 18.8122 117.647 17.2744 117.647 15.4117C117.647 13.5739 118.273 12.0425 119.523 10.8173C120.785 9.57966 122.336 8.96082 124.174 8.96082C125.611 8.96082 126.918 9.41088 128.093 10.311C128.668 10.7611 129.168 11.2861 129.592 11.8862L128.937 12.4113C128.636 11.8987 128.237 11.4362 127.736 11.0236C126.686 10.1485 125.492 9.71092 124.155 9.71092C122.555 9.71092 121.211 10.2673 120.122 11.3799C119.048 12.4926 118.51 13.849 118.51 15.4493C118.51 17.0245 119.041 18.3621 120.104 19.4623C121.167 20.55 122.498 21.0937 124.098 21.0937C125.086 21.0937 125.961 20.8875 126.724 20.4749C127.498 20.0499 128.074 19.5498 128.449 18.9747C128.949 18.1997 129.224 17.337 129.274 16.3869H124.848Z" fill="black"/>
<path d="M138.996 21.6376H138.059L134.009 15.7305H133.633V21.6376H132.808V9.12959H134.609C135.746 9.12959 136.628 9.34212 137.252 9.76718C138.116 10.3673 138.547 11.2611 138.547 12.4488C138.547 13.1365 138.378 13.7553 138.04 14.3053C137.703 14.8429 137.171 15.2367 136.446 15.4867C135.971 15.6493 135.458 15.7305 134.908 15.7305L138.996 21.6376ZM133.633 9.8797V14.9804H134.834C135.722 14.9804 136.415 14.7554 136.915 14.3053C137.427 13.8553 137.683 13.2302 137.683 12.43C137.683 11.3799 137.315 10.6548 136.578 10.2548C136.14 10.0047 135.503 9.8797 134.665 9.8797H133.633Z" fill="black"/>
<path d="M142.58 10.8361C143.829 9.5859 145.367 8.96082 147.192 8.96082C149.017 8.96082 150.555 9.5859 151.805 10.8361C153.055 12.0862 153.68 13.6115 153.68 15.4117C153.68 17.212 153.055 18.7372 151.805 19.9874C150.555 21.225 149.017 21.8439 147.192 21.8439C145.355 21.8439 143.81 21.225 142.56 19.9874C141.322 18.7372 140.703 17.212 140.703 15.4117C140.703 13.6115 141.329 12.0862 142.58 10.8361ZM143.179 19.4623C144.254 20.55 145.593 21.0937 147.192 21.0937C148.792 21.0937 150.131 20.55 151.205 19.4623C152.28 18.3621 152.818 17.012 152.818 15.4117C152.818 13.799 152.28 12.4488 151.205 11.3612C150.131 10.261 148.792 9.71092 147.192 9.71092C145.593 9.71092 144.254 10.261 143.179 11.3612C142.104 12.4488 141.567 13.799 141.567 15.4117C141.567 17.012 142.104 18.3621 143.179 19.4623Z" fill="black"/>
<path d="M156.378 9.12959H157.203V16.9495C157.203 17.612 157.234 18.1433 157.296 18.5434C157.371 18.931 157.515 19.2997 157.728 19.6498C158.052 20.1749 158.483 20.55 159.021 20.7749C159.572 20.9875 160.109 21.0937 160.634 21.0937C161.159 21.0937 161.691 20.9875 162.228 20.7749C162.778 20.55 163.216 20.1749 163.541 19.6498C163.754 19.2997 163.891 18.931 163.953 18.5434C164.028 18.1433 164.066 17.612 164.066 16.9495V9.12959H164.891V16.9495C164.891 17.7245 164.848 18.3434 164.76 18.806C164.673 19.2686 164.478 19.7185 164.178 20.1561C163.404 21.2814 162.222 21.8439 160.634 21.8439C159.047 21.8439 157.865 21.2814 157.089 20.1561C156.79 19.7185 156.596 19.2686 156.509 18.806C156.421 18.3434 156.378 17.7245 156.378 16.9495V9.12959Z" fill="black"/>
<path d="M170.7 15.693H169.088V21.6376H168.263V9.12959H170.681C171.744 9.12959 172.619 9.41713 173.307 9.99222C173.995 10.5548 174.339 11.3549 174.339 12.3926C174.339 13.4177 174.007 14.224 173.344 14.8117C172.682 15.3992 171.801 15.693 170.7 15.693ZM169.088 9.8797V14.9429H170.738C171.563 14.9429 172.226 14.7179 172.726 14.2678C173.226 13.8052 173.475 13.1864 173.475 12.4113C173.475 11.6237 173.219 11.0049 172.707 10.5548C172.206 10.1047 171.506 9.8797 170.607 9.8797H169.088Z" fill="black"/>
<path d="M60.6198 32.2718V25.277H61.97V38.9477H60.6198V37.8601C59.9447 38.7352 59.0572 39.1728 57.957 39.1728C56.9068 39.1728 56.0129 38.8103 55.2753 38.0851C54.5377 37.36 54.1689 36.3474 54.1689 35.0472C54.1689 33.772 54.5314 32.7782 55.2565 32.0655C55.9941 31.3404 56.8943 30.9779 57.957 30.9779C59.0821 30.9779 59.9697 31.4091 60.6198 32.2718ZM58.107 32.178C57.3943 32.178 56.788 32.4343 56.288 32.9469C55.8004 33.4469 55.5567 34.1471 55.5567 35.0472C55.5567 35.9098 55.7816 36.6161 56.2317 37.1662C56.6943 37.7038 57.3194 37.9727 58.107 37.9727C58.8946 37.9727 59.5196 37.6913 59.9823 37.1288C60.4573 36.5662 60.6948 35.8785 60.6948 35.066C60.6948 34.1409 60.4323 33.4282 59.9073 32.9281C59.3821 32.4281 58.782 32.178 58.107 32.178Z" fill="black"/>
<path d="M64.5272 31.1654H65.8775V38.9477H64.5272V31.1654ZM64.5272 28.8963C64.3397 28.7088 64.246 28.4838 64.246 28.2213C64.246 27.9587 64.3397 27.7336 64.5272 27.5461C64.7148 27.3586 64.9399 27.2649 65.2024 27.2649C65.465 27.2649 65.6899 27.3586 65.8775 27.5461C66.065 27.7336 66.1587 27.9587 66.1587 28.2213C66.1587 28.4838 66.065 28.7088 65.8775 28.8963C65.6899 29.0838 65.465 29.1777 65.2024 29.1777C64.9399 29.1777 64.7148 29.0838 64.5272 28.8963Z" fill="black"/>
<path d="M74.3914 32.2718V31.1654H75.7415V38.7602C75.7415 40.1229 75.4915 41.1419 74.9914 41.8169C74.2789 42.7795 73.2411 43.2609 71.8784 43.2609C70.7283 43.2609 69.8032 42.9108 69.103 42.2108C68.428 41.5356 68.0904 40.698 68.0904 39.6978H69.4218C69.4218 40.3229 69.622 40.8605 70.022 41.3106C70.4721 41.8106 71.0972 42.0607 71.8972 42.0607C72.8348 42.0607 73.5225 41.6981 73.9601 40.973C74.2476 40.5105 74.3914 39.8479 74.3914 38.9853V37.8601C73.7162 38.7352 72.8286 39.1728 71.7285 39.1728C70.6533 39.1728 69.7657 38.8228 69.0656 38.1226C68.3155 37.3725 67.9404 36.3474 67.9404 35.0472C67.9404 33.7845 68.3155 32.7782 69.0656 32.0281C69.7907 31.3279 70.6784 30.9779 71.7285 30.9779C72.8411 30.9779 73.7288 31.4091 74.3914 32.2718ZM71.8784 32.178C71.1909 32.178 70.6033 32.4218 70.1157 32.9094C69.5907 33.4469 69.3281 34.1596 69.3281 35.0472C69.3281 36.0349 69.622 36.7975 70.2095 37.3351C70.6721 37.7601 71.2283 37.9727 71.8784 37.9727C72.5786 37.9727 73.1474 37.7539 73.5849 37.3163C74.1726 36.7537 74.4664 36.0036 74.4664 35.066C74.4664 34.1283 74.1913 33.397 73.6413 32.8719C73.1787 32.4093 72.5911 32.178 71.8784 32.178Z" fill="black"/>
<path d="M78.2987 31.1654H79.6489V38.9477H78.2987V31.1654ZM78.2987 28.8963C78.1112 28.7088 78.0175 28.4838 78.0175 28.2213C78.0175 27.9587 78.1112 27.7336 78.2987 27.5461C78.4862 27.3586 78.7113 27.2649 78.9738 27.2649C79.2363 27.2649 79.4614 27.3586 79.6489 27.5461C79.8365 27.7336 79.9302 27.9587 79.9302 28.2213C79.9302 28.4838 79.8365 28.7088 79.6489 28.8963C79.4614 29.0838 79.2363 29.1777 78.9738 29.1777C78.7113 29.1777 78.4862 29.0838 78.2987 28.8963Z" fill="black"/>
<path d="M84.9374 32.4031H83.5872V38.9477H82.237V32.4031H81.4119V31.1654H82.237V28.3525H83.5872V31.1654H84.9374V32.4031Z" fill="black"/>
<path d="M92.1734 32.2718V31.1654H93.5235V38.9477H92.1734V37.8601C91.4982 38.7352 90.6107 39.1728 89.5105 39.1728C88.4603 39.1728 87.5664 38.8103 86.8288 38.0851C86.0912 37.36 85.7225 36.3474 85.7225 35.0472C85.7225 33.772 86.085 32.7782 86.8102 32.0655C87.5478 31.3404 88.4478 30.9779 89.5105 30.9779C90.6356 30.9779 91.5233 31.4091 92.1734 32.2718ZM89.6605 32.178C88.9479 32.178 88.3416 32.4343 87.8415 32.9469C87.3539 33.4469 87.1102 34.1471 87.1102 35.0472C87.1102 35.9098 87.3352 36.6161 87.7852 37.1662C88.2478 37.7038 88.8729 37.9727 89.6605 37.9727C90.4481 37.9727 91.0732 37.6913 91.5358 37.1288C92.0109 36.5662 92.2484 35.8785 92.2484 35.066C92.2484 34.1409 91.9859 33.4282 91.4608 32.9281C90.9357 32.4281 90.3356 32.178 89.6605 32.178Z" fill="black"/>
<path d="M96.0809 25.277H97.431V38.9477H96.0809V25.277Z" fill="black"/>
<path d="M110.322 32.2718V31.1654H111.672V38.9477H110.322V37.8601C109.647 38.7352 108.759 39.1728 107.659 39.1728C106.609 39.1728 105.715 38.8103 104.977 38.0851C104.24 37.36 103.871 36.3474 103.871 35.0472C103.871 33.772 104.233 32.7782 104.958 32.0655C105.696 31.3404 106.596 30.9779 107.659 30.9779C108.784 30.9779 109.672 31.4091 110.322 32.2718ZM107.809 32.178C107.096 32.178 106.49 32.4343 105.99 32.9469C105.502 33.4469 105.258 34.1471 105.258 35.0472C105.258 35.9098 105.484 36.6161 105.934 37.1662C106.396 37.7038 107.021 37.9727 107.809 37.9727C108.596 37.9727 109.221 37.6913 109.684 37.1288C110.159 36.5662 110.397 35.8785 110.397 35.066C110.397 34.1409 110.134 33.4282 109.609 32.9281C109.084 32.4281 108.484 32.178 107.809 32.178Z" fill="black"/>
<path d="M120.192 32.2718V31.1654H121.543V38.7602C121.543 40.1229 121.293 41.1419 120.792 41.8169C120.08 42.7795 119.042 43.2609 117.68 43.2609C116.529 43.2609 115.604 42.9108 114.904 42.2108C114.229 41.5356 113.892 40.698 113.892 39.6978H115.223C115.223 40.3229 115.423 40.8605 115.823 41.3106C116.273 41.8106 116.899 42.0607 117.698 42.0607C118.636 42.0607 119.324 41.6981 119.761 40.973C120.048 40.5105 120.192 39.8479 120.192 38.9853V37.8601C119.518 38.7352 118.63 39.1728 117.53 39.1728C116.455 39.1728 115.567 38.8228 114.867 38.1226C114.117 37.3725 113.742 36.3474 113.742 35.0472C113.742 33.7845 114.117 32.7782 114.867 32.0281C115.592 31.3279 116.479 30.9779 117.53 30.9779C118.643 30.9779 119.53 31.4091 120.192 32.2718ZM117.68 32.178C116.992 32.178 116.405 32.4218 115.917 32.9094C115.392 33.4469 115.129 34.1596 115.129 35.0472C115.129 36.0349 115.423 36.7975 116.011 37.3351C116.473 37.7601 117.029 37.9727 117.68 37.9727C118.38 37.9727 118.949 37.7539 119.387 37.3163C119.974 36.7537 120.267 36.0036 120.267 35.066C120.267 34.1283 119.993 33.397 119.442 32.8719C118.98 32.4093 118.392 32.178 117.68 32.178Z" fill="black"/>
<path d="M129.875 36.3411L131 36.96C130.739 37.46 130.42 37.8788 130.044 38.2164C129.332 38.854 128.47 39.1728 127.457 39.1728C126.407 39.1728 125.501 38.8352 124.737 38.1602C123.987 37.4725 123.613 36.4537 123.613 35.1035C123.613 33.9158 123.95 32.9344 124.625 32.1592C125.313 31.3717 126.232 30.9779 127.381 30.9779C128.682 30.9779 129.663 31.4529 130.326 32.4031C130.851 33.1532 131.094 34.1283 131.057 35.3284H125C125.013 36.1161 125.256 36.7537 125.731 37.2412C126.206 37.7288 126.788 37.9727 127.475 37.9727C128.088 37.9727 128.619 37.785 129.07 37.41C129.42 37.11 129.689 36.7537 129.875 36.3411ZM125.094 34.2033H129.669C129.557 33.5908 129.288 33.1032 128.864 32.7406C128.451 32.3655 127.956 32.178 127.381 32.178C126.819 32.178 126.319 32.3718 125.882 32.7594C125.457 33.1344 125.194 33.6158 125.094 34.2033Z" fill="black"/>
<path d="M133.128 38.9477V31.1654H134.478V32.0655C135.029 31.3404 135.773 30.9779 136.71 30.9779C137.71 30.9779 138.454 31.3341 138.942 32.0467C139.242 32.4843 139.392 33.1782 139.392 34.1283V38.9477H138.042V34.1658C138.042 33.5282 137.922 33.0532 137.685 32.7406C137.397 32.3655 136.973 32.178 136.41 32.178C135.835 32.178 135.379 32.378 135.041 32.7782C134.666 33.2156 134.478 33.9158 134.478 34.8785V38.9477H133.128Z" fill="black"/>
<path d="M148.032 31.7279V33.3407C147.419 32.5656 146.607 32.178 145.594 32.178C144.831 32.178 144.181 32.4406 143.643 32.9657C143.106 33.4782 142.837 34.1845 142.837 35.0847C142.837 35.9848 143.106 36.6912 143.643 37.2038C144.181 37.7163 144.825 37.9727 145.575 37.9727C146.575 37.9727 147.413 37.5663 148.088 36.7537V38.3664C147.351 38.904 146.525 39.1728 145.612 39.1728C144.4 39.1728 143.4 38.7915 142.612 38.0289C141.837 37.2537 141.45 36.2787 141.45 35.1035C141.45 33.9158 141.844 32.9344 142.631 32.1592C143.419 31.3717 144.412 30.9779 145.612 30.9779C146.513 30.9779 147.319 31.2279 148.032 31.7279Z" fill="black"/>
<path d="M150.141 43.2609L152.616 38.2164L149.034 31.1654H150.572L153.329 36.7349L155.86 31.1654H157.361L151.641 43.2609H150.141Z" fill="black"/>
<path d="M0.0078125 24.5227C0.0078125 10.9792 10.987 0 24.5305 0C38.074 0 49.0532 10.9792 49.0532 24.5227C49.0532 38.0662 38.074 49.0453 24.5305 49.0453C10.987 49.0453 0.0078125 38.0662 0.0078125 24.5227Z" fill="black"/>
<path fill-rule="evenodd" clip-rule="evenodd" d="M2.89235 24.5227C2.89235 36.4729 12.5799 46.1604 24.5301 46.1604C36.4802 46.1604 46.1676 36.4729 46.1676 24.5227C46.1676 12.5727 36.4802 2.88512 24.5301 2.88512C12.5799 2.88512 2.89235 12.5727 2.89235 24.5227ZM24.5301 1.4426C11.7832 1.4426 1.44983 11.776 1.44983 24.5227C1.44983 37.2696 11.7832 47.6029 24.5301 47.6029C37.2768 47.6029 47.6102 37.2696 47.6102 24.5227C47.6102 11.776 37.2768 1.4426 24.5301 1.4426Z" fill="#FFB800"/>
<path d="M15.2545 20.3248H10.5894V18.1035H22.3228V20.3248H17.6577V31.7351H15.2545V20.3248Z" fill="#FFB800"/>
<path d="M25.0412 29.9782C23.6949 28.6319 23.0217 26.9489 23.0217 24.9294C23.0217 22.9099 23.7083 21.2202 25.0817 19.8604C26.4415 18.5141 28.158 17.8409 30.2314 17.8409C31.6451 17.8409 32.9174 18.1775 34.0483 18.8507C35.1926 19.5239 36.0544 20.4393 36.6333 21.5971L34.2906 22.4656C33.8868 21.7385 33.328 21.1731 32.6145 20.7691C31.9009 20.3653 31.1065 20.1633 30.2314 20.1633C28.912 20.1633 27.7945 20.621 26.879 21.5366C25.977 22.4387 25.526 23.5629 25.526 24.9092C25.526 26.2824 25.9567 27.4202 26.8184 28.3222C27.6801 29.2243 28.7504 29.6753 30.0294 29.6753C31.0257 29.6753 31.9346 29.3791 32.7558 28.7867C33.5501 28.2077 34.0819 27.4403 34.3512 26.4844H29.7871V24.2832H37.0776C37.1045 24.6332 37.1179 24.8553 37.1179 24.9495C37.0911 26.9692 36.4112 28.6453 35.0783 29.9782C33.7454 31.3245 32.0827 31.9977 30.0901 31.9977C28.0705 31.9977 26.3876 31.3245 25.0412 29.9782Z" fill="#FFB800"/>
</g>
<defs>
<clipPath id="clip0_1_1167">
<rect width="174.984" height="49.83" fill="white" transform="translate(0.0078125)"/>
</clipPath>
</defs>
</svg>
